<svg width="520" height="520" viewBox="0 0 520 520" fill="none" xmlns="http://www.w3.org/2000/svg">
<g filter="url(#filter0_d_1_108)">
<path d="M510 260C510 398.071 398.071 510 260 510C121.929 510 10 398.071 10 260C10 121.929 121.929 10 260 10C398.071 10 510 121.929 510 260Z" fill="#444762"/>
</g>
<path d="M193.222 230.738C189.098 230.738 185.647 234.105 185.647 238.313C185.647 242.437 189.013 245.888 193.222 245.888C197.346 245.888 200.796 242.521 200.796 238.313C200.796 234.105 197.346 230.738 193.222 230.738Z" fill="white"/>
<path d="M267.622 229.982C263.161 229.982 259.542 233.601 259.542 238.062C259.542 242.522 263.161 246.141 267.622 246.141C272.083 246.141 275.702 242.522 275.702 238.062C275.786 233.601 272.167 229.982 267.622 229.982Z" fill="white"/>
<path d="M335.037 155.833H174.706C158.546 155.833 145.417 168.963 145.417 185.122V280.227C145.417 296.386 158.546 309.516 174.706 309.516H231.348L250.621 354.88C250.621 354.88 251.968 358.836 255.166 358.836C258.364 358.836 259.711 354.88 259.711 354.88L278.984 309.516H335.121C351.281 309.516 364.41 296.386 364.41 280.227V185.122C364.326 168.963 351.197 155.833 335.037 155.833ZM214.178 239.913C214.094 257.335 196.083 257.84 196.083 257.84C189.098 257.84 185.226 253.211 185.226 253.211V256.325H172.181V202.292C172.097 202.292 172.097 202.292 172.181 202.292C173.022 202.46 185.31 202.292 185.31 202.292V222.912C188.424 217.694 197.261 217.778 197.261 217.778C216.619 219.629 214.178 239.913 214.178 239.913ZM237.239 219.461V256.409H224.446V219.798C224.446 214.832 218.302 213.401 218.302 213.401V200.524C238.754 201.366 237.239 219.461 237.239 219.461ZM267.622 257.84C255.755 257.84 246.16 249.002 246.16 238.061C246.16 227.12 255.755 218.283 267.622 218.283C279.489 218.283 289.084 227.12 289.084 238.061C289.168 249.002 279.489 257.84 267.622 257.84ZM337.899 257.84C337.899 257.84 338.067 276.608 318.962 276.608H313.155V264.404H316.689C316.689 264.404 324.685 265.162 324.601 252.79C324.601 252.79 323.002 257.755 311.808 257.755C311.808 257.755 295.817 256.577 295.817 241.007V235.115C295.817 235.115 296.154 218.956 313.744 217.694C313.744 217.694 320.645 216.936 324.938 222.659V218.704H337.983V257.84H337.899Z" fill="white"/>
<path d="M317.531 230.15C313.155 230.15 309.62 233.685 309.62 238.062C309.62 242.438 313.155 245.973 317.531 245.973C321.908 245.973 325.443 242.438 325.443 238.062C325.443 233.685 321.908 230.15 317.531 230.15Z" fill="white"/>
<defs>
<filter id="filter0_d_1_108" x="0" y="0" width="520" height="520" filterUnits="userSpaceOnUse" color-interpolation-filters="sRGB">
<feFlood flood-opacity="0" result="BackgroundImageFix"/>
<feColorMatrix in="SourceAlpha" type="matrix" values="0 0 0 0 0 0 0 0 0 0 0 0 0 0 0 0 0 0 127 0" result="hardAlpha"/>
<feOffset/>
<feGaussianBlur stdDeviation="5"/>
<feComposite in2="hardAlpha" operator="out"/>
<feColorMatrix type="matrix" values="0 0 0 0 0 0 0 0 0 0 0 0 0 0 0 0 0 0 0.25 0"/>
<feBlend mode="normal" in2="BackgroundImageFix" result="effect1_dropShadow_1_108"/>
<feBlend mode="normal" in="SourceGraphic" in2="effect1_dropShadow_1_108" result="shape"/>
</filter>
</defs>
</svg>
