<svg width="68" height="68" viewBox="0 0 68 68" fill="none" xmlns="http://www.w3.org/2000/svg">
<g filter="url(#filter0_d_249_4546)">
<path d="M58 34C58 47.2548 47.2548 58 34 58C20.7452 58 10 47.2548 10 34C10 20.7452 20.7452 10 34 10C47.2548 10 58 20.7452 58 34Z" fill="#444762"/>
</g>
<path d="M27.5895 31.1909C27.1936 31.1909 26.8623 31.5141 26.8623 31.9181C26.8623 32.314 27.1855 32.6453 27.5895 32.6453C27.9854 32.6453 28.3167 32.3221 28.3167 31.9181C28.3167 31.5141 27.9854 31.1909 27.5895 31.1909Z" fill="white"/>
<path d="M34.7317 31.1182C34.3035 31.1182 33.9561 31.4656 33.9561 31.8938C33.9561 32.322 34.3035 32.6695 34.7317 32.6695C35.1599 32.6695 35.5074 32.322 35.5074 31.8938C35.5154 31.4656 35.168 31.1182 34.7317 31.1182Z" fill="white"/>
<path d="M41.2036 24H25.8117C24.2604 24 23 25.2604 23 26.8117V35.9418C23 37.4931 24.2604 38.7535 25.8117 38.7535H31.2494L33.0996 43.1085C33.0996 43.1085 33.2289 43.4882 33.5359 43.4882C33.843 43.4882 33.9722 43.1085 33.9722 43.1085L35.8225 38.7535H41.2116C42.7629 38.7535 44.0234 37.4931 44.0234 35.9418V26.8117C44.0153 25.2604 42.7549 24 41.2036 24ZM29.6011 32.0716C29.593 33.7441 27.864 33.7926 27.864 33.7926C27.1934 33.7926 26.8217 33.3482 26.8217 33.3482V33.6472H25.5693V28.46C25.5613 28.46 25.5613 28.46 25.5693 28.46C25.6501 28.4762 26.8298 28.46 26.8298 28.46V30.4395C27.1287 29.9386 27.9771 29.9467 27.9771 29.9467C29.8354 30.1244 29.6011 32.0716 29.6011 32.0716ZM31.815 30.1083V33.6552H30.5868V30.1406C30.5868 29.6639 29.997 29.5265 29.997 29.5265V28.2903C31.9604 28.3711 31.815 30.1083 31.815 30.1083ZM34.7317 33.7926C33.5925 33.7926 32.6714 32.9442 32.6714 31.8939C32.6714 30.8435 33.5925 29.9951 34.7317 29.9951C35.871 29.9951 36.792 30.8435 36.792 31.8939C36.8001 32.9442 35.871 33.7926 34.7317 33.7926ZM41.4783 33.7926C41.4783 33.7926 41.4944 35.5944 39.6603 35.5944H39.1028V34.4228H39.4422C39.4422 34.4228 40.2098 34.4955 40.2017 33.3078C40.2017 33.3078 40.0482 33.7845 38.9736 33.7845C38.9736 33.7845 37.4384 33.6714 37.4384 32.1767V31.6111C37.4384 31.6111 37.4707 30.0598 39.1594 29.9386C39.1594 29.9386 39.8219 29.8659 40.234 30.4153V30.0355H41.4864V33.7926H41.4783Z" fill="white"/>
<path d="M39.5232 31.1345C39.103 31.1345 38.7637 31.4739 38.7637 31.894C38.7637 32.3142 39.103 32.6535 39.5232 32.6535C39.9433 32.6535 40.2827 32.3142 40.2827 31.894C40.2827 31.4739 39.9433 31.1345 39.5232 31.1345Z" fill="white"/>
<defs>
<filter id="filter0_d_249_4546" x="0" y="0" width="68" height="68" filterUnits="userSpaceOnUse" color-interpolation-filters="sRGB">
<feFlood flood-opacity="0" result="BackgroundImageFix"/>
<feColorMatrix in="SourceAlpha" type="matrix" values="0 0 0 0 0 0 0 0 0 0 0 0 0 0 0 0 0 0 127 0" result="hardAlpha"/>
<feOffset/>
<feGaussianBlur stdDeviation="5"/>
<feComposite in2="hardAlpha" operator="out"/>
<feColorMatrix type="matrix" values="0 0 0 0 0 0 0 0 0 0 0 0 0 0 0 0 0 0 0.25 0"/>
<feBlend mode="normal" in2="BackgroundImageFix" result="effect1_dropShadow_249_4546"/>
<feBlend mode="normal" in="SourceGraphic" in2="effect1_dropShadow_249_4546" result="shape"/>
</filter>
</defs>
</svg>
