<svg width="68" height="68" viewBox="0 0 68 68" fill="none" xmlns="http://www.w3.org/2000/svg">
<g filter="url(#filter0_d_249_4543)">
<path d="M58 34C58 47.2548 47.2548 58 34 58C20.7452 58 10 47.2548 10 34C10 20.7452 20.7452 10 34 10C47.2548 10 58 20.7452 58 34Z" fill="#444762"/>
</g>
<path d="M43.8374 29.0177C43.6992 27.7003 43.1952 26.5374 42.2197 25.6022C41.1874 24.6183 39.9355 24.1873 38.5536 24.1141C36.2044 23.984 30.6199 23.9026 28.6609 24.2279C26.4173 24.5939 24.9541 25.9031 24.3363 28.115C23.8567 29.8065 23.9543 37.6539 24.2307 39.3372C24.6127 41.6386 25.9702 43.1105 28.2463 43.7041C29.8233 44.1107 37.5782 44.0619 39.3178 43.7773C41.6182 43.4032 43.0977 42.0533 43.6992 39.7764C44.1544 38.028 44 30.5872 43.8374 29.0177ZM42.0003 39.0119C41.732 40.7603 40.5696 41.8419 38.8138 42.0371C37.1961 42.216 29.994 42.3135 28.4983 41.8907C27.0676 41.4922 26.2466 40.5082 26.0109 39.0689C25.7833 37.6946 25.7264 30.8067 26.0109 28.9689C26.271 27.2368 27.4334 26.1552 29.1811 25.96C30.9532 25.7649 37.3262 25.7405 39.0251 26.0007C40.7728 26.2691 41.8458 27.4319 42.0409 29.1885C42.2197 30.8311 42.2685 37.2473 42.0003 39.0119ZM34.0015 28.8632C31.1645 28.8632 28.8722 31.1564 28.8722 34.0026C28.8722 36.8326 31.1645 39.1177 33.9853 39.1258C36.8222 39.1339 39.1227 36.8407 39.1227 34.0026C39.1308 31.1564 36.8385 28.8632 34.0015 28.8632ZM33.969 37.3123C32.1644 37.3042 30.6849 35.8161 30.6849 33.9782C30.6849 32.1485 32.1725 30.6766 34.0178 30.6766C35.8468 30.6766 37.3181 32.1648 37.3181 34.0107C37.3181 35.8486 35.8305 37.3123 33.969 37.3123ZM40.529 28.6761C40.529 29.343 39.9924 29.8715 39.3259 29.8715C38.6593 29.8715 38.131 29.343 38.1228 28.6761C38.1147 28.0012 38.6593 27.4645 39.334 27.4645C40.0006 27.4726 40.529 28.0093 40.529 28.6761Z" fill="white"/>
<defs>
<filter id="filter0_d_249_4543" x="0" y="0" width="68" height="68" filterUnits="userSpaceOnUse" color-interpolation-filters="sRGB">
<feFlood flood-opacity="0" result="BackgroundImageFix"/>
<feColorMatrix in="SourceAlpha" type="matrix" values="0 0 0 0 0 0 0 0 0 0 0 0 0 0 0 0 0 0 127 0" result="hardAlpha"/>
<feOffset/>
<feGaussianBlur stdDeviation="5"/>
<feComposite in2="hardAlpha" operator="out"/>
<feColorMatrix type="matrix" values="0 0 0 0 0 0 0 0 0 0 0 0 0 0 0 0 0 0 0.25 0"/>
<feBlend mode="normal" in2="BackgroundImageFix" result="effect1_dropShadow_249_4543"/>
<feBlend mode="normal" in="SourceGraphic" in2="effect1_dropShadow_249_4543" result="shape"/>
</filter>
</defs>
</svg>
