<svg width="68" height="68" viewBox="0 0 68 68" fill="none" xmlns="http://www.w3.org/2000/svg">
<g filter="url(#filter0_d_249_4560)">
<path d="M58 34C58 47.2548 47.2548 58 34 58C20.7452 58 10 47.2548 10 34C10 20.7452 20.7452 10 34 10C47.2548 10 58 20.7452 58 34Z" fill="#444762"/>
</g>
<path d="M31.629 31.2393L30.9019 33.2996H32.3724L31.6533 31.2393C31.6371 31.2473 31.6371 31.2393 31.629 31.2393Z" fill="white"/>
<path d="M33.7945 24C27.8317 24 23 27.8136 23 32.5241C23 35.5944 25.0442 38.2768 28.1225 39.7797C27.8963 40.6199 27.3065 42.8338 27.1853 43.3024C27.0398 43.8922 27.4034 43.8841 27.6377 43.7225C27.8236 43.6013 30.5949 41.7188 31.7907 40.9027C32.4371 40.9997 33.1077 41.0482 33.7945 41.0482C39.7573 41.0482 44.589 37.2265 44.589 32.516C44.5809 27.8136 39.7492 24 33.7945 24ZM28.478 34.8672C28.478 35.0045 28.4215 35.1419 28.3245 35.2389C28.2276 35.3358 28.0902 35.3924 27.9529 35.3924H27.8397C27.7024 35.3924 27.565 35.3358 27.4681 35.2389C27.3711 35.1419 27.3146 35.0045 27.3146 34.8672V31.0859H26.2965C25.9976 31.0859 25.7633 30.8435 25.7633 30.5526C25.7633 30.2537 26.0056 30.0194 26.2965 30.0194H29.4557C29.7546 30.0194 29.9889 30.2618 29.9889 30.5526C29.9889 30.8516 29.7465 31.0859 29.4557 31.0859H28.4861V34.8672H28.478ZM33.649 35.3601C33.3743 35.457 33.0835 35.3116 32.9865 35.0369L32.7199 34.2693H30.5626L30.296 35.0369C30.199 35.3116 29.9001 35.4489 29.6334 35.3601C29.3587 35.2631 29.2214 34.9641 29.3183 34.6975L30.8615 30.5526C30.8696 30.5284 30.8777 30.5041 30.8939 30.4799C30.9585 30.1729 31.2736 29.9386 31.6614 29.9386C32.0089 29.9386 32.2997 30.1325 32.3967 30.391L32.4048 30.3991L33.9803 34.6975C34.0611 34.9722 33.9157 35.2712 33.649 35.3601ZM37.0344 35.3601H34.8933C34.6267 35.3601 34.4085 35.1419 34.4085 34.8753C34.4085 34.8429 34.4085 34.8106 34.4166 34.7864C34.4085 34.7541 34.4085 34.7218 34.4085 34.6894V30.5284C34.4085 30.2052 34.6671 29.9467 34.9903 29.9467C35.3135 29.9467 35.572 30.2052 35.572 30.5284V34.3905H37.0425C37.3091 34.3905 37.5273 34.6086 37.5273 34.8753C37.5192 35.1419 37.3011 35.3601 37.0344 35.3601ZM41.6156 35.2873C41.3894 35.457 41.0581 35.4166 40.8885 35.1823L39.3452 33.1543L39.014 33.4856V34.8106C39.014 35.1338 38.7554 35.3924 38.4322 35.3924C38.109 35.3924 37.8505 35.1338 37.8505 34.8106V30.5203C37.8505 30.1971 38.109 29.9386 38.4322 29.9386C38.7554 29.9386 39.014 30.1971 39.014 30.5203V32.0393L40.84 30.2133C41.042 30.0113 41.3652 30.0113 41.5671 30.2133C41.7691 30.4153 41.7691 30.7385 41.5671 30.9405L40.0886 32.419L41.7207 34.5682C41.8903 34.7864 41.8499 35.1177 41.6156 35.2873Z" fill="white"/>
<defs>
<filter id="filter0_d_249_4560" x="0" y="0" width="68" height="68" filterUnits="userSpaceOnUse" color-interpolation-filters="sRGB">
<feFlood flood-opacity="0" result="BackgroundImageFix"/>
<feColorMatrix in="SourceAlpha" type="matrix" values="0 0 0 0 0 0 0 0 0 0 0 0 0 0 0 0 0 0 127 0" result="hardAlpha"/>
<feOffset/>
<feGaussianBlur stdDeviation="5"/>
<feComposite in2="hardAlpha" operator="out"/>
<feColorMatrix type="matrix" values="0 0 0 0 0 0 0 0 0 0 0 0 0 0 0 0 0 0 0.25 0"/>
<feBlend mode="normal" in2="BackgroundImageFix" result="effect1_dropShadow_249_4560"/>
<feBlend mode="normal" in="SourceGraphic" in2="effect1_dropShadow_249_4560" result="shape"/>
</filter>
</defs>
</svg>
