<svg width="520" height="520" viewBox="0 0 520 520" fill="none" xmlns="http://www.w3.org/2000/svg">
<g filter="url(#filter0_d_1_122)">
<path d="M510 260C510 398.071 398.071 510 260 510C121.929 510 10 398.071 10 260C10 121.929 121.929 10 260 10C398.071 10 510 121.929 510 260Z" fill="#444762"/>
</g>
<path d="M235.303 231.244L227.729 252.705H243.046L235.556 231.244C235.388 231.328 235.388 231.244 235.303 231.244Z" fill="white"/>
<path d="M257.859 155.833C195.746 155.833 145.417 195.558 145.417 244.626C145.417 276.608 166.71 304.55 198.776 320.205C196.42 328.958 190.276 352.019 189.013 356.9C187.498 363.044 191.286 362.96 193.726 361.276C195.662 360.014 224.53 340.404 236.987 331.903C243.72 332.913 250.705 333.418 257.859 333.418C319.972 333.418 370.302 293.609 370.302 244.542C370.217 195.559 319.888 155.833 257.859 155.833ZM202.48 269.033C202.48 270.464 201.89 271.895 200.88 272.905C199.87 273.915 198.44 274.504 197.009 274.504H195.831C194.4 274.504 192.969 273.915 191.959 272.905C190.949 271.895 190.36 270.464 190.36 269.033V229.645H179.755C176.641 229.645 174.201 227.12 174.201 224.09C174.201 220.976 176.725 218.535 179.755 218.535H212.663C215.777 218.535 218.218 221.06 218.218 224.09C218.218 227.204 215.693 229.645 212.663 229.645H202.564V269.033H202.48ZM256.344 274.167C253.483 275.177 250.453 273.662 249.443 270.801L246.665 262.805H224.194L221.416 270.801C220.406 273.662 217.292 275.093 214.515 274.167C211.653 273.157 210.223 270.043 211.233 267.266L227.308 224.09C227.392 223.838 227.476 223.585 227.644 223.332C228.318 220.134 231.6 217.693 235.64 217.693C239.259 217.693 242.289 219.713 243.299 222.407L243.383 222.491L259.795 267.266C260.637 270.127 259.122 273.241 256.344 274.167ZM291.609 274.167H269.305C266.528 274.167 264.256 271.895 264.256 269.117C264.256 268.781 264.256 268.444 264.34 268.192C264.256 267.855 264.256 267.518 264.256 267.182V223.838C264.256 220.471 266.949 217.778 270.315 217.778C273.682 217.778 276.375 220.471 276.375 223.838V264.068H291.693C294.47 264.068 296.743 266.34 296.743 269.117C296.658 271.895 294.386 274.167 291.609 274.167ZM339.329 273.41C336.973 275.177 333.522 274.756 331.755 272.316L315.679 251.191L312.229 254.641V268.444C312.229 271.811 309.536 274.504 306.169 274.504C302.802 274.504 300.109 271.811 300.109 268.444V223.753C300.109 220.387 302.802 217.693 306.169 217.693C309.536 217.693 312.229 220.387 312.229 223.753V239.576L331.25 220.555C333.354 218.451 336.72 218.451 338.824 220.555C340.929 222.659 340.929 226.026 338.824 228.13L323.422 243.532L340.424 265.919C342.191 268.192 341.77 271.642 339.329 273.41Z" fill="white"/>
<defs>
<filter id="filter0_d_1_122" x="0" y="0" width="520" height="520" filterUnits="userSpaceOnUse" color-interpolation-filters="sRGB">
<feFlood flood-opacity="0" result="BackgroundImageFix"/>
<feColorMatrix in="SourceAlpha" type="matrix" values="0 0 0 0 0 0 0 0 0 0 0 0 0 0 0 0 0 0 127 0" result="hardAlpha"/>
<feOffset/>
<feGaussianBlur stdDeviation="5"/>
<feComposite in2="hardAlpha" operator="out"/>
<feColorMatrix type="matrix" values="0 0 0 0 0 0 0 0 0 0 0 0 0 0 0 0 0 0 0.25 0"/>
<feBlend mode="normal" in2="BackgroundImageFix" result="effect1_dropShadow_1_122"/>
<feBlend mode="normal" in="SourceGraphic" in2="effect1_dropShadow_1_122" result="shape"/>
</filter>
</defs>
</svg>
