<svg width="400" height="400" viewBox="0 0 400 400" fill="none" xmlns="http://www.w3.org/2000/svg">
<path d="M400 200C400 310.457 310.457 400 200 400C89.543 400 0 310.457 0 200C0 89.543 89.543 0 200 0C310.457 0 400 89.543 400 200Z" fill="#2446AB"/>
<path d="M212.112 198.294C211.342 198.294 210.778 198.729 210.419 199.598C210.034 200.468 209.854 201.543 209.854 202.847C209.854 204.177 210.034 205.277 210.419 206.147C210.804 207.042 211.368 207.477 212.112 207.477C212.855 207.477 213.445 207.042 213.83 206.147C214.215 205.252 214.42 204.152 214.42 202.847C214.42 201.543 214.215 200.468 213.83 199.598C213.445 198.729 212.881 198.294 212.112 198.294Z" fill="white"/>
<path d="M223.269 198.294C222.499 198.294 221.935 198.729 221.576 199.598C221.191 200.468 221.012 201.543 221.012 202.847C221.012 204.177 221.191 205.277 221.576 206.147C221.961 207.042 222.525 207.477 223.269 207.477C224.013 207.477 224.603 207.042 224.987 206.147C225.372 205.252 225.577 204.152 225.577 202.847C225.577 201.543 225.372 200.468 224.987 199.598C224.603 198.729 224.038 198.294 223.269 198.294Z" fill="white"/>
<path d="M237.044 116.667H154.506C149.351 116.667 145.17 120.837 145.17 125.978V208.297C145.17 213.439 149.351 217.609 154.506 217.609H237.044C242.2 217.609 246.381 213.439 246.381 208.297V125.978C246.381 120.837 242.2 116.667 237.044 116.667ZM206.06 207.172L206.035 209.474L196.981 209.499C196.981 208.527 197.109 207.581 197.391 206.66C197.673 205.739 198.443 204.818 199.7 203.948L201.905 202.362C202.264 202.107 202.624 201.825 202.957 201.518C203.316 201.211 203.496 200.776 203.521 200.265C203.547 199.753 203.393 199.293 203.06 198.883C202.726 198.474 202.239 198.27 201.623 198.27C200.956 198.27 200.469 198.5 200.11 198.986C199.751 199.472 199.597 200.06 199.597 200.725H197.135C197.083 199.574 197.442 198.474 198.212 197.502C198.981 196.504 200.136 196.018 201.623 196.018C203.06 196.018 204.162 196.453 204.932 197.323C205.701 198.193 206.112 199.165 206.112 200.239C206.112 201.288 205.83 202.107 205.265 202.669C204.701 203.232 204.137 203.718 203.598 204.128L201.11 205.969C200.777 206.2 200.546 206.404 200.366 206.583C200.187 206.762 200.059 206.967 199.956 207.197L206.06 207.172ZM215.807 207.862C214.961 209.167 213.73 209.806 212.139 209.806C210.549 209.806 209.344 209.167 208.523 207.862C207.702 206.558 207.266 204.895 207.266 202.848C207.266 200.828 207.676 199.165 208.523 197.886C209.344 196.607 210.549 195.967 212.139 195.967C213.755 195.967 214.986 196.607 215.807 197.886C216.653 199.165 217.064 200.828 217.064 202.848C217.064 204.895 216.653 206.583 215.807 207.862ZM226.964 207.862C226.118 209.167 224.887 209.806 223.297 209.806C221.706 209.806 220.501 209.167 219.68 207.862C218.859 206.558 218.423 204.895 218.423 202.848C218.423 200.828 218.834 199.165 219.68 197.886C220.501 196.607 221.706 195.967 223.297 195.967C224.912 195.967 226.144 196.607 226.964 197.886C227.811 199.165 228.221 200.828 228.221 202.848C228.221 204.895 227.785 206.583 226.964 207.862ZM237.044 200.137C236.506 200.776 235.993 201.646 235.454 202.772C234.915 203.897 234.479 205.151 234.172 206.507C233.838 207.862 233.684 208.911 233.659 209.627H230.914C230.94 209.013 231.094 208.093 231.35 206.839C231.607 205.611 232.043 204.383 232.633 203.155C233.12 202.158 233.659 201.262 234.223 200.469C234.787 199.676 235.223 199.114 235.505 198.73L229.042 198.704V196.3H238.275L238.301 198.704C237.993 199.037 237.557 199.523 237.044 200.137ZM241.789 124.392L237.686 161.024C237.173 163.122 236.557 163.71 235.121 163.557C232.787 163.326 232.838 161.178 232.838 161.178C232.838 161.178 233.864 138.436 233.89 138.129C233.992 137.26 233.402 136.722 232.71 137.387C220.655 149.41 156.635 208.809 153.737 211.725C152.788 212.595 152.095 212.799 151.249 211.955C149.992 210.702 151.403 209.397 151.403 209.397C151.403 209.397 225.605 130.941 225.913 130.634C226.58 130.02 226.246 129.253 225.297 129.355C217.269 129.355 210.806 130.711 202.803 130.532C201.392 130.506 200.059 130.071 199.905 128.409C199.879 126.03 201.803 125.927 201.803 125.927L239.199 121.86C242.354 121.348 241.789 124.392 241.789 124.392Z" fill="white"/>
<path d="M69.9373 260.277C68.5206 262.222 66.5583 263.623 64.0617 264.504L74.5587 279.408H66.4654L56.758 265.187H56.3864V279.408H50V242.407H58.6043C60.6711 242.407 62.1923 242.477 63.1793 242.604C64.6888 242.836 65.9661 243.288 67.0227 243.959C68.5322 244.828 69.7399 246.16 70.634 247.943C71.5629 249.657 72.0274 251.522 72.0274 253.525C72.0157 256.119 71.319 258.366 69.9373 260.277ZM64.0617 249.877C63.1096 249.136 61.5188 248.765 59.3009 248.765H56.3864V258.817H59.1616C61.4375 258.817 63.0631 258.447 64.0153 257.706C65.0371 256.965 65.5364 255.679 65.5364 253.872C65.5364 251.985 65.0487 250.665 64.0617 249.877Z" fill="white"/>
<path d="M75.776 259.547C76.4262 257.833 77.3668 256.258 78.5976 254.834C79.9562 253.317 81.5006 252.147 83.2191 251.336C84.9725 250.526 86.7955 250.12 88.6766 250.12C90.5925 250.12 92.3923 250.479 94.0876 251.186C95.7829 251.927 97.3273 253.027 98.7091 254.486C100.01 255.876 101.02 257.486 101.763 259.292C102.506 261.11 102.878 262.952 102.878 264.828C102.878 266.739 102.518 268.615 101.809 270.456C101.159 272.274 100.265 273.849 99.1271 275.216C97.7105 276.768 96.1313 277.972 94.4127 278.806C92.6245 279.651 90.7899 280.068 88.9088 280.068C86.9 280.068 85.0421 279.698 83.312 278.957C81.5818 278.181 80.0839 277.08 78.8299 275.656C77.5294 274.266 76.5308 272.633 75.8224 270.757C75.149 268.916 74.8006 267.051 74.8006 265.175C74.8006 263.207 75.1257 261.33 75.776 259.547ZM83.312 271.244C84.7634 272.865 86.6213 273.676 88.9088 273.676C91.0918 273.676 92.9032 272.865 94.3198 271.244C95.7713 269.657 96.4912 267.607 96.4912 265.071C96.4912 262.477 95.7713 260.392 94.3198 258.806C92.8684 257.289 91.0337 256.524 88.8159 256.524C86.6213 256.524 84.8099 257.3 83.3584 258.852C81.8837 260.474 81.1406 262.558 81.1406 265.117C81.1406 267.619 81.8605 269.657 83.312 271.244Z" fill="white"/>
<path d="M116.255 279.258C114.954 278.771 113.723 278.065 112.551 277.127V279.408H106.315V242.407H112.469V253.189C113.7 252.216 114.977 251.51 116.313 251.058C117.636 250.607 119.053 250.375 120.563 250.375C122.537 250.375 124.336 250.734 125.974 251.44C127.634 252.158 129.132 253.235 130.456 254.695C131.687 256.084 132.65 257.671 133.324 259.454C134.032 261.238 134.392 263.114 134.392 265.083C134.392 269.263 133.034 272.784 130.328 275.668C127.611 278.551 124.267 279.987 120.296 279.987C118.891 279.987 117.544 279.744 116.255 279.258ZM114.641 271.29C116.185 272.934 117.996 273.768 120.098 273.768C122.316 273.768 124.185 272.946 125.695 271.29C127.263 269.634 128.052 267.573 128.052 265.071C128.052 262.639 127.263 260.636 125.695 259.049C124.185 257.497 122.339 256.721 120.145 256.721C117.95 256.721 116.127 257.52 114.641 259.095C113.131 260.751 112.376 262.836 112.376 265.361C112.365 267.642 113.12 269.611 114.641 271.29Z" fill="white"/>
<path d="M137.865 259.547C138.515 257.833 139.456 256.258 140.687 254.834C142.045 253.317 143.59 252.147 145.308 251.336C147.061 250.526 148.885 250.12 150.766 250.12C152.682 250.12 154.481 250.479 156.177 251.186C157.872 251.927 159.416 253.027 160.798 254.486C162.099 255.876 163.109 257.486 163.852 259.292C164.595 261.11 164.967 262.952 164.967 264.828C164.967 266.739 164.607 268.615 163.898 270.456C163.248 272.274 162.354 273.849 161.216 275.216C159.799 276.768 158.22 277.972 156.502 278.806C154.714 279.651 152.879 280.068 150.998 280.068C148.989 280.068 147.131 279.698 145.401 278.957C143.671 278.181 142.173 277.08 140.919 275.656C139.618 274.266 138.62 272.633 137.911 270.757C137.238 268.916 136.89 267.051 136.89 265.175C136.901 263.207 137.215 261.33 137.865 259.547ZM145.401 271.244C146.852 272.865 148.71 273.676 150.998 273.676C153.181 273.676 154.992 272.865 156.409 271.244C157.86 269.657 158.58 267.607 158.58 265.071C158.58 262.477 157.86 260.392 156.409 258.806C154.957 257.289 153.123 256.524 150.905 256.524C148.71 256.524 146.899 257.3 145.447 258.852C143.973 260.474 143.23 262.558 143.23 265.117C143.23 267.619 143.961 269.657 145.401 271.244Z" fill="white"/>
<path d="M169.89 257.069H166.325V251.047H169.89V242.407H175.986V251.047H179.643V257.069H175.986V279.408H169.878V257.069H169.89Z" fill="white"/>
<path d="M194.238 279.397V242.407H200.439L215.557 266.785V242.407H221.944V279.408H216.022L200.718 254.347V279.397H194.238Z" fill="white"/>
<path d="M264.747 277.313C262.03 279.154 258.906 280.08 255.364 280.08C252.74 280.08 250.29 279.525 248.014 278.424C245.738 277.359 243.718 275.784 241.953 273.711C240.502 271.928 239.398 269.936 238.62 267.735C237.854 265.465 237.459 263.103 237.459 260.648C237.459 258.054 237.924 255.61 238.841 253.317C239.77 250.989 241.117 248.882 242.905 247.006C244.6 245.257 246.493 243.937 248.595 243.022C250.72 242.119 252.984 241.667 255.388 241.667C258.999 241.667 262.169 242.616 264.909 244.527C267.743 246.496 269.972 249.38 271.574 253.167H264.271C263.133 251.511 261.821 250.306 260.334 249.53C258.883 248.812 257.222 248.465 255.341 248.465C253.797 248.465 252.38 248.743 251.091 249.287C249.768 249.866 248.595 250.723 247.573 251.858C246.4 253.051 245.518 254.417 244.937 255.934C244.357 257.452 244.055 259.038 244.055 260.694C244.055 262.443 244.322 264.076 244.844 265.593C245.402 267.11 246.215 268.442 247.294 269.577C248.339 270.769 249.57 271.696 250.999 272.344C252.38 272.993 253.832 273.317 255.341 273.317C257.164 273.317 258.778 272.947 260.195 272.206C261.646 271.464 262.912 270.341 263.992 268.859H271.621C269.856 272.588 267.557 275.402 264.747 277.313Z" fill="white"/>
<path d="M274.893 259.547C275.543 257.833 276.484 256.258 277.715 254.834C279.073 253.317 280.618 252.147 282.336 251.336C284.089 250.526 285.913 250.12 287.794 250.12C289.71 250.12 291.509 250.479 293.205 251.186C294.9 251.927 296.444 253.027 297.826 254.486C299.127 255.876 300.137 257.486 300.88 259.292C301.623 261.11 301.995 262.952 301.995 264.828C301.995 266.739 301.635 268.615 300.926 270.456C300.276 272.274 299.382 273.849 298.244 275.216C296.828 276.768 295.248 277.972 293.53 278.806C291.742 279.651 289.907 280.068 288.026 280.068C286.017 280.068 284.159 279.698 282.429 278.957C280.699 278.181 279.213 277.08 277.947 275.656C276.658 274.266 275.648 272.633 274.939 270.757C274.266 268.916 273.918 267.051 273.918 265.175C273.918 263.207 274.243 261.33 274.893 259.547ZM282.429 271.244C283.88 272.865 285.738 273.676 288.026 273.676C290.209 273.676 292.02 272.865 293.437 271.244C294.888 269.657 295.608 267.607 295.608 265.071C295.608 262.477 294.888 260.392 293.437 258.806C291.985 257.289 290.151 256.524 287.933 256.524C285.738 256.524 283.927 257.3 282.475 258.852C281.001 260.474 280.258 262.558 280.258 265.117C280.258 267.619 280.978 269.657 282.429 271.244Z" fill="white"/>
<path d="M342.614 279.398H336.46V262.988C336.46 260.823 336.054 259.201 335.253 258.136C334.486 257.129 333.337 256.631 331.827 256.631C330.004 256.631 328.762 257.233 328.077 258.426C327.426 259.595 327.101 261.645 327.101 264.587V279.398H321.04V265.085C321.04 262.039 320.68 259.885 319.972 258.622C319.263 257.291 318.044 256.631 316.314 256.631C314.491 256.631 313.202 257.279 312.424 258.576C311.681 259.838 311.309 261.946 311.309 264.888V279.41H305.387V251.049H311.031V252.844C311.89 252.033 312.807 251.454 313.759 251.095C314.688 250.771 315.699 250.608 316.813 250.608C318.451 250.608 319.879 250.898 321.11 251.477C322.375 252.091 323.467 253.064 324.396 254.395C325.348 253.098 326.486 252.126 327.821 251.477C329.122 250.898 330.608 250.608 332.303 250.608C335.287 250.608 337.749 251.662 339.653 253.758C341.593 255.901 342.568 258.727 342.568 262.259" fill="white"/>
</svg>
