<svg width="111" height="111" viewBox="0 0 111 111" fill="none" xmlns="http://www.w3.org/2000/svg">
<path d="M110.667 55.3333C110.667 85.8931 85.8931 110.667 55.3333 110.667C24.7736 110.667 0 85.8931 0 55.3333C0 24.7736 24.7736 0 55.3333 0C85.8931 0 110.667 24.7736 110.667 55.3333Z" fill="#3366FF"/>
<path d="M58.6842 54.8613C58.4713 54.8613 58.3152 54.9816 58.2159 55.2222C58.1094 55.4629 58.0597 55.7601 58.0597 56.1211C58.0597 56.4891 58.1094 56.7934 58.2159 57.034C58.3223 57.2817 58.4784 57.4021 58.6842 57.4021C58.89 57.4021 59.0532 57.2817 59.1597 57.034C59.2661 56.7863 59.3229 56.482 59.3229 56.1211C59.3229 55.7601 59.2661 55.4629 59.1597 55.2222C59.0532 54.9816 58.8971 54.8613 58.6842 54.8613Z" fill="white"/>
<path d="M61.771 54.8613C61.5582 54.8613 61.402 54.9816 61.3027 55.2222C61.1963 55.4629 61.1466 55.7601 61.1466 56.1211C61.1466 56.4891 61.1963 56.7934 61.3027 57.034C61.4091 57.2817 61.5653 57.4021 61.771 57.4021C61.9768 57.4021 62.14 57.2817 62.2465 57.034C62.3529 56.7863 62.4097 56.482 62.4097 56.1211C62.4097 55.7601 62.3529 55.4629 62.2465 55.2222C62.14 54.9816 61.9839 54.8613 61.771 54.8613Z" fill="white"/>
<path d="M65.5823 32.2779H42.7467C41.3204 32.2779 40.1637 33.4315 40.1637 34.854V57.6289C40.1637 59.0514 41.3204 60.205 42.7467 60.205H65.5823C67.0086 60.205 68.1653 59.0514 68.1653 57.6289V34.854C68.1653 33.4315 67.0086 32.2779 65.5823 32.2779ZM57.0101 57.3175L57.003 57.9544L54.498 57.9615C54.498 57.6926 54.5335 57.4307 54.6116 57.1759C54.6896 56.9212 54.9025 56.6664 55.2502 56.4257L55.8605 55.9869C55.9598 55.9162 56.0592 55.8383 56.1514 55.7534C56.2508 55.6685 56.3005 55.5482 56.3076 55.4066C56.3146 55.2651 56.2721 55.1377 56.1798 55.0244C56.0876 54.9112 55.9527 54.8546 55.7824 54.8546C55.5979 54.8546 55.4631 54.9183 55.3638 55.0527C55.2644 55.1872 55.2218 55.35 55.2218 55.534H54.5406C54.5264 55.2155 54.6258 54.9112 54.8386 54.6423C55.0515 54.3662 55.3709 54.2318 55.7824 54.2318C56.1798 54.2318 56.485 54.3521 56.6978 54.5927C56.9107 54.8333 57.0243 55.1023 57.0243 55.3995C57.0243 55.6897 56.9462 55.9162 56.7901 56.0719C56.634 56.2276 56.4779 56.362 56.3288 56.4753L55.6405 56.9849C55.5483 57.0486 55.4844 57.1052 55.4347 57.1547C55.385 57.2043 55.3496 57.2609 55.3212 57.3246L57.0101 57.3175ZM59.7066 57.5086C59.4725 57.8695 59.1318 58.0465 58.6919 58.0465C58.2519 58.0465 57.9184 57.8695 57.6913 57.5086C57.4642 57.1476 57.3436 56.6876 57.3436 56.1214C57.3436 55.5623 57.4571 55.1023 57.6913 54.7484C57.9184 54.3946 58.2519 54.2176 58.6919 54.2176C59.1389 54.2176 59.4795 54.3946 59.7066 54.7484C59.9408 55.1023 60.0543 55.5623 60.0543 56.1214C60.0543 56.6876 59.9408 57.1547 59.7066 57.5086ZM62.7935 57.5086C62.5593 57.8695 62.2187 58.0465 61.7787 58.0465C61.3387 58.0465 61.0052 57.8695 60.7781 57.5086C60.5511 57.1476 60.4304 56.6876 60.4304 56.1214C60.4304 55.5623 60.544 55.1023 60.7781 54.7484C61.0052 54.3946 61.3387 54.2176 61.7787 54.2176C62.2258 54.2176 62.5664 54.3946 62.7935 54.7484C63.0276 55.1023 63.1412 55.5623 63.1412 56.1214C63.1412 56.6876 63.0205 57.1547 62.7935 57.5086ZM65.5823 55.3712C65.4332 55.5482 65.2913 55.7888 65.1423 56.1002C64.9933 56.4116 64.8727 56.7584 64.7875 57.1335C64.6952 57.5086 64.6527 57.7987 64.6456 57.9969H63.8863C63.8934 57.8271 63.936 57.5723 64.0069 57.2255C64.0779 56.8858 64.1985 56.5461 64.3617 56.2063C64.4966 55.9303 64.6456 55.6826 64.8017 55.4632C64.9578 55.2438 65.0784 55.0881 65.1565 54.982L63.3683 54.9749V54.3096H65.9229L65.93 54.9749C65.8448 55.0669 65.7242 55.2014 65.5823 55.3712ZM66.8951 34.4152L65.7597 44.55C65.6178 45.1303 65.4474 45.2931 65.0501 45.2506C64.4043 45.1869 64.4185 44.5924 64.4185 44.5924C64.4185 44.5924 64.7023 38.3007 64.7094 38.2158C64.7378 37.9751 64.5746 37.8265 64.383 38.0105C61.0478 41.3369 43.3357 57.7704 42.5339 58.5773C42.2713 58.8179 42.0797 58.8745 41.8455 58.6409C41.4978 58.2942 41.8881 57.9332 41.8881 57.9332C41.8881 57.9332 62.4174 36.227 62.5025 36.1421C62.687 35.9723 62.5948 35.7599 62.3322 35.7882C60.1111 35.7882 58.3229 36.1633 56.1089 36.1138C55.7186 36.1067 55.3496 35.9864 55.307 35.5264C55.2999 34.8682 55.8321 34.8399 55.8321 34.8399L66.1783 33.7146C67.0512 33.573 66.8951 34.4152 66.8951 34.4152Z" fill="white"/>
<path d="M19.3493 72.0099C18.9574 72.5481 18.4145 72.9358 17.7237 73.1793L20.6279 77.3029H18.3888L15.703 73.3684H15.6002V77.3029H13.8333V67.0661H16.2138C16.7857 67.0661 17.2065 67.0853 17.4796 67.1205C17.8972 67.1846 18.2506 67.3096 18.543 67.4954C18.9606 67.7357 19.2947 68.1042 19.5421 68.5976C19.7991 69.0718 19.9276 69.5876 19.9276 70.1419C19.9244 70.8596 19.7316 71.4812 19.3493 72.0099ZM17.7237 69.1327C17.4603 68.9276 17.0202 68.8251 16.4066 68.8251H15.6002V71.6062H16.368C16.9977 71.6062 17.4475 71.5036 17.7109 71.2986C17.9936 71.0935 18.1317 70.7379 18.1317 70.238C18.1317 69.7158 17.9968 69.3505 17.7237 69.1327Z" fill="white"/>
<path d="M20.9647 71.808C21.1446 71.3338 21.4048 70.8981 21.7453 70.504C22.1212 70.0842 22.5485 69.7606 23.0239 69.5364C23.509 69.3121 24.0134 69.1999 24.5339 69.1999C25.0639 69.1999 25.5619 69.2993 26.0309 69.4947C26.4999 69.6998 26.9272 70.0041 27.3095 70.4079C27.6693 70.7923 27.9488 71.2377 28.1544 71.7375C28.36 72.2406 28.4628 72.75 28.4628 73.2691C28.4628 73.7977 28.3632 74.3168 28.1673 74.8262C27.9874 75.3292 27.74 75.765 27.4252 76.1431C27.0332 76.5724 26.5963 76.9056 26.1209 77.1363C25.6261 77.3702 25.1185 77.4856 24.5981 77.4856C24.0423 77.4856 23.5283 77.383 23.0496 77.178C22.571 76.9633 22.1566 76.6589 21.8096 76.2648C21.4498 75.8803 21.1735 75.4286 20.9775 74.9095C20.7912 74.4001 20.6948 73.8842 20.6948 73.3652C20.6948 72.8205 20.7848 72.3014 20.9647 71.808ZM23.0496 75.0441C23.4512 75.4926 23.9652 75.7169 24.5981 75.7169C25.2021 75.7169 25.7032 75.4926 26.0952 75.0441C26.4967 74.6051 26.6959 74.038 26.6959 73.3363C26.6959 72.6186 26.4967 72.0419 26.0952 71.603C25.6936 71.1832 25.186 70.9718 24.5724 70.9718C23.9652 70.9718 23.4641 71.1864 23.0625 71.6158C22.6545 72.0643 22.4489 72.6411 22.4489 73.3492C22.4489 74.0412 22.6481 74.6051 23.0496 75.0441Z" fill="white"/>
<path d="M32.1638 77.2613C31.804 77.1267 31.4635 76.9313 31.139 76.6717V77.3029H29.4138V67.0661H31.1165V70.049C31.457 69.7799 31.8104 69.5844 32.1799 69.4595C32.5461 69.3345 32.938 69.2704 33.3557 69.2704C33.9018 69.2704 34.3997 69.3698 34.8527 69.5652C35.3121 69.7639 35.7265 70.0618 36.0928 70.4655C36.4333 70.85 36.6999 71.289 36.8863 71.7824C37.0822 72.2758 37.1818 72.7949 37.1818 73.3395C37.1818 74.4962 36.806 75.4702 36.0574 76.268C35.3057 77.0658 34.3805 77.4631 33.2818 77.4631C32.8931 77.4631 32.5204 77.3958 32.1638 77.2613ZM31.7173 75.0569C32.1445 75.5119 32.6457 75.7426 33.2272 75.7426C33.8408 75.7426 34.358 75.5151 34.7756 75.0569C35.2093 74.5987 35.4278 74.0284 35.4278 73.3363C35.4278 72.6635 35.2093 72.1092 34.7756 71.6702C34.358 71.2409 33.8472 71.0262 33.24 71.0262C32.6328 71.0262 32.1285 71.2473 31.7173 71.6831C31.2996 72.1412 31.0908 72.718 31.0908 73.4164C31.0876 74.0476 31.2964 74.5923 31.7173 75.0569Z" fill="white"/>
<path d="M38.1427 71.808C38.3226 71.3338 38.5828 70.8981 38.9233 70.504C39.2992 70.0842 39.7265 69.7606 40.2019 69.5364C40.687 69.3121 41.1914 69.1999 41.7118 69.1999C42.2419 69.1999 42.7398 69.2993 43.2089 69.4947C43.6779 69.6998 44.1052 70.0041 44.4875 70.4079C44.8473 70.7923 45.1268 71.2377 45.3324 71.7375C45.538 72.2406 45.6408 72.75 45.6408 73.2691C45.6408 73.7977 45.5412 74.3168 45.3452 74.8262C45.1653 75.3292 44.918 75.765 44.6031 76.1431C44.2112 76.5724 43.7743 76.9056 43.2988 77.1363C42.8041 77.3702 42.2965 77.4856 41.7761 77.4856C41.2203 77.4856 40.7063 77.383 40.2276 77.178C39.7489 76.9633 39.3345 76.6589 38.9876 76.2648C38.6278 75.8803 38.3515 75.4286 38.1555 74.9095C37.9692 74.4001 37.8728 73.8842 37.8728 73.3652C37.876 72.8205 37.9628 72.3014 38.1427 71.808ZM40.2276 75.0441C40.6292 75.4926 41.1432 75.7169 41.7761 75.7169C42.38 75.7169 42.8812 75.4926 43.2731 75.0441C43.6747 74.6051 43.8739 74.038 43.8739 73.3363C43.8739 72.6186 43.6747 72.0419 43.2731 71.603C42.8716 71.1832 42.364 70.9718 41.7504 70.9718C41.1432 70.9718 40.642 71.1864 40.2405 71.6158C39.8325 72.0643 39.6269 72.6411 39.6269 73.3492C39.6269 74.0412 39.8293 74.6051 40.2276 75.0441Z" fill="white"/>
<path d="M47.0028 71.1224H46.0165V69.4563H47.0028V67.0661H48.6894V69.4563H49.7014V71.1224H48.6894V77.3029H46.9996V71.1224H47.0028Z" fill="white"/>
<path d="M53.7393 77.2997V67.0661H55.4548L59.6375 73.8105V67.0661H61.4044V77.3029H59.766L55.5319 70.3694V77.2997H53.7393Z" fill="white"/>
<path d="M73.2466 76.7232C72.4949 77.2326 71.6307 77.4889 70.6508 77.4889C69.9248 77.4889 69.247 77.3351 68.6173 77.0308C67.9876 76.736 67.4286 76.3002 66.9403 75.7267C66.5388 75.2333 66.2336 74.6822 66.0183 74.0734C65.8063 73.4455 65.6971 72.7918 65.6971 72.1126C65.6971 71.3949 65.8256 70.7188 66.0794 70.0844C66.3364 69.4404 66.709 68.8573 67.2038 68.3382C67.6728 67.8544 68.1964 67.4892 68.7779 67.236C69.3658 66.9861 69.9923 66.8612 70.6573 66.8612C71.6564 66.8612 72.5334 67.1239 73.2916 67.6526C74.0754 68.1973 74.6923 68.9951 75.1356 70.0428H73.1149C72.8001 69.5846 72.437 69.2514 72.0258 69.0367C71.6243 68.8381 71.1649 68.7419 70.6444 68.7419C70.2172 68.7419 69.8252 68.8188 69.4686 68.9694C69.1024 69.1296 68.7779 69.3667 68.4952 69.6807C68.1707 70.0107 67.9266 70.3888 67.766 70.8085C67.6053 71.2283 67.5218 71.6672 67.5218 72.1254C67.5218 72.6092 67.5957 73.061 67.7403 73.4807C67.8945 73.9004 68.1194 74.2689 68.4181 74.5829C68.7073 74.9129 69.0478 75.1692 69.4429 75.3486C69.8252 75.5281 70.2268 75.6178 70.6444 75.6178C71.1488 75.6178 71.5953 75.5153 71.9873 75.3102C72.3889 75.1051 72.739 74.7943 73.0378 74.3842H75.1484C74.6601 75.4159 74.024 76.1945 73.2466 76.7232Z" fill="white"/>
<path d="M76.0537 71.808C76.2336 71.3338 76.4939 70.8981 76.8344 70.504C77.2103 70.0842 77.6375 69.7606 78.113 69.5364C78.5981 69.3121 79.1025 69.1999 79.6229 69.1999C80.153 69.1999 80.6509 69.2993 81.12 69.4947C81.589 69.6998 82.0163 70.0041 82.3986 70.4079C82.7584 70.7923 83.0379 71.2377 83.2435 71.7375C83.4491 72.2406 83.5519 72.75 83.5519 73.2691C83.5519 73.7977 83.4523 74.3168 83.2563 74.8262C83.0764 75.3292 82.829 75.765 82.5142 76.1431C82.1223 76.5724 81.6854 76.9056 81.2099 77.1363C80.7152 77.3702 80.2076 77.4856 79.6871 77.4856C79.1314 77.4856 78.6174 77.383 78.1387 77.178C77.66 76.9633 77.2488 76.6589 76.8986 76.2648C76.542 75.8803 76.2626 75.4286 76.0666 74.9095C75.8803 74.4001 75.7839 73.8842 75.7839 73.3652C75.7839 72.8205 75.8738 72.3014 76.0537 71.808ZM78.1387 75.0441C78.5403 75.4926 79.0543 75.7169 79.6871 75.7169C80.2911 75.7169 80.7923 75.4926 81.1842 75.0441C81.5858 74.6051 81.785 74.038 81.785 73.3363C81.785 72.6186 81.5858 72.0419 81.1842 71.603C80.7826 71.1832 80.2751 70.9718 79.6615 70.9718C79.0543 70.9718 78.5531 71.1864 78.1516 71.6158C77.7436 72.0643 77.5379 72.6411 77.5379 73.3492C77.5379 74.0412 77.7371 74.6051 78.1387 75.0441Z" fill="white"/>
<path d="M94.79 77.3002H93.0873V72.7601C93.0873 72.161 92.9749 71.7124 92.7532 71.4176C92.5412 71.1389 92.2231 71.0011 91.8055 71.0011C91.3011 71.0011 90.9574 71.1677 90.7679 71.4977C90.588 71.8213 90.498 72.3885 90.498 73.2023V77.3002H88.821V73.3401C88.821 72.4974 88.7215 71.9015 88.5255 71.5522C88.3295 71.1838 87.9922 71.0011 87.5135 71.0011C87.0092 71.0011 86.6526 71.1805 86.4373 71.5394C86.2317 71.8886 86.1289 72.4718 86.1289 73.2856V77.3034H84.4905V69.4568H86.0518V69.9534C86.2895 69.7291 86.5433 69.5689 86.8068 69.4696C87.0638 69.3799 87.3433 69.335 87.6517 69.335C88.1046 69.335 88.4998 69.4151 88.8403 69.5753C89.1905 69.7451 89.4925 70.0143 89.7495 70.3827C90.0129 70.0239 90.3277 69.7548 90.6972 69.5753C91.057 69.4151 91.4682 69.335 91.9372 69.335C92.7629 69.335 93.4439 69.6266 93.9708 70.2065C94.5073 70.7993 94.7771 71.5811 94.7771 72.5583" fill="white"/>
</svg>
