<svg width="68" height="68" viewBox="0 0 68 68" fill="none" xmlns="http://www.w3.org/2000/svg">
<g filter="url(#filter0_d_249_4376)">
<path d="M58 34C58 47.2548 47.2548 58 34 58C20.7452 58 10 47.2548 10 34C10 20.7452 20.7452 10 34 10C47.2548 10 58 20.7452 58 34Z" fill="#6494A4"/>
</g>
<path d="M36.7973 30.4341C35.9667 29.5813 34.8074 29.0486 33.5303 29.0486H31.1828V30.4144H33.5303C34.3951 30.4144 35.2086 30.7602 35.819 31.3867C35.8275 31.3953 35.836 31.4038 35.8446 31.4123C36.472 32.0236 36.8169 32.8362 36.8169 33.701V36.8168V38.1826V42.6643C36.8169 44.4296 35.3811 45.8655 33.6157 45.8655C31.8504 45.8655 30.4145 44.4296 30.4145 42.6643V38.1826C30.4145 37.428 29.8033 36.8168 29.0487 36.8168H24.567C22.8017 36.8168 21.3658 35.381 21.3658 33.6156C21.3658 31.8503 22.8017 30.4144 24.567 30.4144H28.2804V29.0486H24.567C22.0547 29.0486 20 31.1042 20 33.6156C20 36.1279 22.0547 38.1826 24.567 38.1826H29.0487V42.6643C29.0487 45.1766 31.1034 47.2313 33.6157 47.2313C36.128 47.2313 38.1827 45.1766 38.1827 42.6643V38.1826V36.8168V33.701C38.1827 32.4231 37.6501 31.2647 36.7973 30.4341Z" fill="white"/>
<path d="M42.664 29.0487H38.1824V24.567C38.1824 22.0547 36.1277 20 33.6154 20C31.1031 20 29.0483 22.0547 29.0483 24.567V29.0487V30.4145V33.5303C29.0483 34.8083 29.581 35.9667 30.4338 36.7973C31.2644 37.6501 32.4237 38.1827 33.7007 38.1827H36.0483V36.8169H33.7007C32.836 36.8169 32.0225 36.4712 31.4121 35.8446C31.4036 35.836 31.395 35.8275 31.3865 35.819C30.7591 35.2078 30.4142 34.3951 30.4142 33.5303V30.4145V29.0487V24.567C30.4142 22.8017 31.85 21.3658 33.6154 21.3658C35.3807 21.3658 36.8165 22.8017 36.8165 24.567V29.0487C36.8165 29.8033 37.4278 30.4145 38.1824 30.4145H42.664C44.4294 30.4145 45.8652 31.8504 45.8652 33.6157C45.8652 35.3811 44.4294 36.8169 42.664 36.8169H38.9507V38.1827H42.664C45.1763 38.1827 47.2311 36.128 47.2311 33.6157C47.2311 31.1034 45.1763 29.0487 42.664 29.0487Z" fill="white"/>
<defs>
<filter id="filter0_d_249_4376" x="0" y="0" width="68" height="68" filterUnits="userSpaceOnUse" color-interpolation-filters="sRGB">
<feFlood flood-opacity="0" result="BackgroundImageFix"/>
<feColorMatrix in="SourceAlpha" type="matrix" values="0 0 0 0 0 0 0 0 0 0 0 0 0 0 0 0 0 0 127 0" result="hardAlpha"/>
<feOffset/>
<feGaussianBlur stdDeviation="5"/>
<feComposite in2="hardAlpha" operator="out"/>
<feColorMatrix type="matrix" values="0 0 0 0 0 0 0 0 0 0 0 0 0 0 0 0 0 0 0.25 0"/>
<feBlend mode="normal" in2="BackgroundImageFix" result="effect1_dropShadow_249_4376"/>
<feBlend mode="normal" in="SourceGraphic" in2="effect1_dropShadow_249_4376" result="shape"/>
</filter>
</defs>
</svg>
