<svg width="68" height="68" viewBox="0 0 68 68" fill="none" xmlns="http://www.w3.org/2000/svg">
<g filter="url(#filter0_d_249_4632)">
<path d="M58 34C58 47.2548 47.2548 58 34 58C20.7452 58 10 47.2548 10 34C10 20.7452 20.7452 10 34 10C47.2548 10 58 20.7452 58 34Z" fill="#FFD1B0"/>
</g>
<path fill-rule="evenodd" clip-rule="evenodd" d="M40.7554 45H26.2446C24.4521 45 23 43.5467 23 41.7554V27.2446C23 25.4521 24.4521 24 26.2446 24H40.7554C42.5467 24 44 25.4521 44 27.2446V41.7554C44 43.5467 42.5467 45 40.7554 45ZM37.699 40.4494H29.2998C28.7476 40.4494 28.2995 40.0013 28.2995 39.4492V36.2999C28.2995 35.7478 28.7476 35.2997 29.2998 35.2997C29.8519 35.2997 30.3 35.7478 30.3 36.2999V38.4502H37.699C38.2511 38.4502 38.6992 38.8983 38.6992 39.4504C38.6992 40.0013 38.2511 40.4494 37.699 40.4494ZM37.0354 34.0246C37.2261 34.193 37.4625 34.2759 37.699 34.2759C37.975 34.2759 38.2498 34.162 38.4454 33.9392C38.8119 33.527 38.7747 32.8944 38.3613 32.528L34.1622 28.8031C33.7834 28.4676 33.214 28.4676 32.8352 28.8031L28.6362 32.528C28.224 32.8944 28.1856 33.5258 28.552 33.9392C28.9184 34.3514 29.5498 34.3898 29.9632 34.0234L33.5 30.8865L37.0354 34.0246Z" fill="white"/>
<defs>
<filter id="filter0_d_249_4632" x="0" y="0" width="68" height="68" filterUnits="userSpaceOnUse" color-interpolation-filters="sRGB">
<feFlood flood-opacity="0" result="BackgroundImageFix"/>
<feColorMatrix in="SourceAlpha" type="matrix" values="0 0 0 0 0 0 0 0 0 0 0 0 0 0 0 0 0 0 127 0" result="hardAlpha"/>
<feOffset/>
<feGaussianBlur stdDeviation="5"/>
<feComposite in2="hardAlpha" operator="out"/>
<feColorMatrix type="matrix" values="0 0 0 0 0 0 0 0 0 0 0 0 0 0 0 0 0 0 0.25 0"/>
<feBlend mode="normal" in2="BackgroundImageFix" result="effect1_dropShadow_249_4632"/>
<feBlend mode="normal" in="SourceGraphic" in2="effect1_dropShadow_249_4632" result="shape"/>
</filter>
</defs>
</svg>
