<svg width="116" height="116" viewBox="0 0 116 116" fill="none" xmlns="http://www.w3.org/2000/svg">
<g filter="url(#filter0_d_259_4754)">
<path d="M100.333 57.6667C100.333 81.2308 81.2308 100.333 57.6667 100.333C34.1025 100.333 15 81.2308 15 57.6667C15 34.1025 34.1025 15 57.6667 15C81.2308 15 100.333 34.1025 100.333 57.6667Z" fill="#3366FF"/>
</g>
<path d="M57.7335 44.7549C50.9559 44.7549 45.5181 50.2715 45.5181 56.9703C45.5181 63.7479 51.0347 69.1857 57.7335 69.1857C64.4323 69.1857 69.9489 63.6691 69.9489 56.9703C69.9489 50.1927 64.5111 44.7549 57.7335 44.7549ZM66.9541 51.6113C65.8508 52.3206 64.2746 52.7934 62.6985 53.0298C62.3832 50.5079 61.6739 48.2225 60.7282 46.7251C63.3289 47.5132 65.5356 49.247 66.9541 51.6113ZM68.3727 56.9703C68.3727 57.8372 68.2939 58.6253 68.0575 59.4134C67.1906 60.6743 64.9051 61.4624 62.462 61.8565C62.6985 60.2803 62.8561 58.6253 62.8561 56.9703C62.8561 56.1822 62.8561 55.3941 62.7773 54.606C64.5899 54.2908 66.2449 53.7391 67.5846 53.0298C68.1363 54.2908 68.3727 55.5517 68.3727 56.9703ZM57.7335 67.6095C56.7878 67.6095 55.6844 66.1122 55.054 63.6691C57.103 63.9055 58.5216 63.8267 60.4918 63.6691C59.7825 66.1122 58.6792 67.6095 57.7335 67.6095ZM54.6599 62.0929C54.3447 60.5955 54.1871 58.8617 54.1871 56.9703C54.1871 56.261 54.1871 55.5517 54.2659 54.8424C56.5513 55.1577 58.758 55.1577 61.2799 54.8424C61.3587 55.5517 61.3587 56.1822 61.3587 56.9703C61.3587 58.8617 61.2011 60.5955 60.8858 62.0929C58.6792 62.3293 56.7878 62.3293 54.6599 62.0929ZM47.4095 59.4134C47.2519 58.6253 47.0942 57.8372 47.0942 56.9703C47.0942 55.5517 47.4095 54.2908 47.8823 53.0298C49.0645 53.7391 50.7195 54.2908 52.6897 54.606C52.6109 55.3941 52.6109 56.1822 52.6109 56.9703C52.6109 58.6253 52.7685 60.2803 53.0049 61.8565C50.5618 61.3836 48.2764 60.5955 47.4095 59.4134ZM57.7335 46.3311C59.0732 46.3311 60.4918 49.1682 61.0435 53.3451C58.6792 53.6603 56.5513 53.5815 54.3447 53.3451C54.9752 49.1682 56.3937 46.3311 57.7335 46.3311ZM54.8175 46.7251C53.8718 48.3013 53.1625 50.5868 52.8473 53.0298C51.1135 52.7146 49.6161 52.1629 48.5916 51.6113C49.9314 49.247 52.138 47.5132 54.8175 46.7251ZM48.434 62.0929C49.9314 62.8022 51.744 63.1962 53.3202 63.4326C53.7142 64.93 54.1871 66.191 54.8175 67.1367C52.0592 66.4274 49.7738 64.536 48.434 62.0929ZM60.6494 67.2155C61.2799 66.191 61.7527 64.93 62.1468 63.5114C63.8018 63.275 65.6144 62.881 67.033 62.1717C65.6932 64.536 63.4077 66.4274 60.6494 67.2155Z" fill="white"/>
<path d="M77.9875 52.0054C77.357 52.0054 76.8054 52.163 76.2537 52.3206L70.9735 43.2576C72.0768 42.3119 72.7861 40.9721 72.7861 39.4747C72.7861 36.7164 70.5794 34.5098 67.8211 34.5098C65.378 34.5098 63.329 36.3224 62.935 38.6866H52.5322C52.1381 36.3224 50.0891 34.5098 47.646 34.5098C44.8877 34.5098 42.681 36.7164 42.681 39.4747C42.681 41.0509 43.3903 42.3907 44.4936 43.3364L39.2134 52.3206C38.6618 52.0842 38.1101 52.0054 37.4796 52.0054C34.7213 52.0054 32.5146 54.212 32.5146 56.9704C32.5146 59.7287 34.7213 61.9353 37.4796 61.9353C38.1101 61.9353 38.6618 61.7777 39.2134 61.6201L44.4148 70.6831C43.3115 71.6289 42.6022 72.9686 42.6022 74.5448C42.6022 77.3031 44.8089 79.5098 47.5672 79.5098C50.0103 79.5098 52.0593 77.6972 52.4534 75.3329H62.8562C63.2502 77.6972 65.2992 79.5098 67.7423 79.5098C70.5006 79.5098 72.7073 77.3031 72.7073 74.5448C72.7073 73.0474 71.998 71.6289 70.8947 70.762L76.1749 61.6989C76.7266 61.9353 77.357 62.0141 77.9087 62.0141C80.667 62.0141 82.8737 59.8075 82.8737 57.0492C82.9525 54.212 80.7458 52.0054 77.9875 52.0054ZM69.6337 69.8951C69.0821 69.6586 68.4516 69.5798 67.8211 69.5798C65.378 69.5798 63.329 71.3924 62.935 73.7567H52.5322C52.1381 71.3924 50.0891 69.5798 47.646 69.5798C47.0155 69.5798 46.4639 69.7374 45.9122 69.8951L40.7108 60.832C41.8141 59.8863 42.5234 58.5465 42.5234 56.9704C42.5234 55.3942 41.8141 54.0544 40.7108 53.1087L45.9122 44.0457C46.4639 44.2821 47.0155 44.3609 47.646 44.3609C50.0891 44.3609 52.1381 42.5483 52.5322 40.184H62.935C63.329 42.5483 65.378 44.3609 67.8211 44.3609C68.4516 44.3609 69.0821 44.2033 69.6337 44.0457L74.9139 53.1087C73.8106 54.0544 73.1013 55.3942 73.1013 56.9704C73.1013 58.5465 73.8106 59.8863 74.9139 60.832L69.6337 69.8951Z" fill="white"/>
<defs>
<filter id="filter0_d_259_4754" x="0.11628" y="0.11628" width="115.101" height="115.101" filterUnits="userSpaceOnUse" color-interpolation-filters="sRGB">
<feFlood flood-opacity="0" result="BackgroundImageFix"/>
<feColorMatrix in="SourceAlpha" type="matrix" values="0 0 0 0 0 0 0 0 0 0 0 0 0 0 0 0 0 0 127 0" result="hardAlpha"/>
<feOffset/>
<feGaussianBlur stdDeviation="7.44186"/>
<feComposite in2="hardAlpha" operator="out"/>
<feColorMatrix type="matrix" values="0 0 0 0 0 0 0 0 0 0 0 0 0 0 0 0 0 0 0.25 0"/>
<feBlend mode="normal" in2="BackgroundImageFix" result="effect1_dropShadow_259_4754"/>
<feBlend mode="normal" in="SourceGraphic" in2="effect1_dropShadow_259_4754" result="shape"/>
</filter>
</defs>
</svg>
