<svg width="103" height="103" viewBox="0 0 103 103" fill="none" xmlns="http://www.w3.org/2000/svg">
<g filter="url(#filter0_d_259_4756)">
<path d="M94.33 51.665C94.33 75.2282 75.2282 94.33 51.665 94.33C28.1018 94.33 9 75.2282 9 51.665C9 28.1018 28.1018 9 51.665 9C75.2282 9 94.33 28.1018 94.33 51.665Z" fill="#2446AB"/>
</g>
<path d="M64.5021 36H38.9655C36.2027 36 34 38.2027 34 40.9655V54.9658C34 57.6912 36.2027 59.9312 38.9655 59.9312H41.7655V65.9794C41.7655 67.4354 43.4829 68.1821 44.5656 67.1741L52.2564 59.9312H64.5394C67.2648 59.9312 69.5048 57.7285 69.5048 54.9658V40.9655C69.4675 38.2027 67.2648 36 64.5021 36ZM44.3042 50.075C43.1096 50.075 42.1762 49.1043 42.1762 47.947C42.1762 46.7896 43.1469 45.8189 44.3042 45.8189C45.4616 45.8189 46.4323 46.7896 46.4323 47.947C46.4323 49.1043 45.4616 50.075 44.3042 50.075ZM51.7338 50.075C50.5391 50.075 49.6057 49.1043 49.6057 47.947C49.6057 46.7896 50.5391 45.8189 51.7338 45.8189C52.9285 45.8189 53.8618 46.7896 53.8618 47.947C53.8618 49.1043 52.9285 50.075 51.7338 50.075ZM59.1633 50.075C57.9686 50.075 57.0352 49.1043 57.0352 47.947C57.0352 46.7896 58.0059 45.8189 59.1633 45.8189C60.358 45.8189 61.2913 46.7896 61.2913 47.947C61.2913 49.1043 60.358 50.075 59.1633 50.075Z" fill="white"/>
<defs>
<filter id="filter0_d_259_4756" x="0.976744" y="0.976744" width="101.377" height="101.377" filterUnits="userSpaceOnUse" color-interpolation-filters="sRGB">
<feFlood flood-opacity="0" result="BackgroundImageFix"/>
<feColorMatrix in="SourceAlpha" type="matrix" values="0 0 0 0 0 0 0 0 0 0 0 0 0 0 0 0 0 0 127 0" result="hardAlpha"/>
<feOffset/>
<feGaussianBlur stdDeviation="4.01163"/>
<feComposite in2="hardAlpha" operator="out"/>
<feColorMatrix type="matrix" values="0 0 0 0 0 0 0 0 0 0 0 0 0 0 0 0 0 0 0.25 0"/>
<feBlend mode="normal" in2="BackgroundImageFix" result="effect1_dropShadow_259_4756"/>
<feBlend mode="normal" in="SourceGraphic" in2="effect1_dropShadow_259_4756" result="shape"/>
</filter>
</defs>
</svg>
