<svg width="103" height="103" viewBox="0 0 103 103" fill="none" xmlns="http://www.w3.org/2000/svg">
<g filter="url(#filter0_d_243_4250)">
<path d="M94.3333 51.6667C94.3333 75.2308 75.2308 94.3333 51.6667 94.3333C28.1025 94.3333 9 75.2308 9 51.6667C9 28.1025 28.1025 9 51.6667 9C75.2308 9 94.3333 28.1025 94.3333 51.6667Z" fill="#2446AB"/>
</g>
<path fill-rule="evenodd" clip-rule="evenodd" d="M51.6665 32.1885C43.999 32.1885 37.7534 38.4341 37.7534 46.1015C37.7534 49.9807 39.3547 53.4934 41.9273 56.02V69.7537C41.9273 69.9909 41.988 70.2241 42.1035 70.4312C42.2189 70.6384 42.3855 70.8126 42.5872 70.9373C42.7889 71.062 43.0192 71.133 43.2561 71.1437C43.4931 71.1544 43.7288 71.1043 43.9409 70.9983L51.6665 67.1341L59.392 70.9983C59.6041 71.1043 59.8399 71.1544 60.0768 71.1437C60.3137 71.133 60.544 71.062 60.7457 70.9373C60.9475 70.8126 61.114 70.6384 61.2295 70.4312C61.345 70.2241 61.4056 69.9909 61.4056 69.7537V56.02C63.9782 53.4934 65.5795 49.9807 65.5795 46.1015C65.5795 38.4341 59.3339 32.1885 51.6665 32.1885ZM51.6665 37.5526C51.9289 37.5528 52.186 37.6268 52.4081 37.7663C52.6302 37.9057 52.8083 38.1048 52.9219 38.3407L54.9002 42.4222L59.4029 43.0363C59.6628 43.0713 59.9076 43.1787 60.109 43.3462C60.3105 43.5137 60.4604 43.7345 60.5416 43.9831C60.6228 44.2318 60.6319 44.4982 60.568 44.7518C60.504 45.0055 60.3695 45.2359 60.18 45.4167L56.8974 48.5499L57.7045 53.0118C57.7512 53.2692 57.724 53.5344 57.6262 53.7771C57.5284 54.0198 57.3638 54.2299 57.1515 54.3835C56.9392 54.5371 56.6877 54.6278 56.4259 54.6452C56.1642 54.6626 55.9028 54.606 55.6719 54.482L51.6665 52.3379L47.661 54.482C47.3512 54.6474 46.9902 54.6901 46.6502 54.6015C46.3103 54.5135 46.0162 54.301 45.8268 54.0062C45.6374 53.7115 45.5665 53.3563 45.6284 53.0118L46.4355 48.5498L43.1529 45.4167C42.9634 45.2359 42.8289 45.0054 42.765 44.7518C42.701 44.4982 42.7102 44.2317 42.7913 43.9831C42.8725 43.7344 43.0224 43.5136 43.2239 43.3461C43.4253 43.1787 43.6701 43.0712 43.93 43.0362L48.4328 42.4221L50.411 38.3406C50.5246 38.1047 50.7027 37.9056 50.9248 37.7662C51.1469 37.6268 51.404 37.5528 51.6665 37.5526ZM44.7099 58.1396C46.7586 59.3287 49.1336 60.0146 51.6665 60.0146C54.1993 60.0146 56.5743 59.3287 58.623 58.1396V67.5037L52.2887 64.3352C52.0955 64.2386 51.8825 64.1883 51.6665 64.1883C51.4504 64.1883 51.2374 64.2386 51.0442 64.3352L44.7099 67.5037V58.1396Z" fill="white"/>
<defs>
<filter id="filter0_d_243_4250" x="0.976744" y="0.976744" width="101.38" height="101.38" filterUnits="userSpaceOnUse" color-interpolation-filters="sRGB">
<feFlood flood-opacity="0" result="BackgroundImageFix"/>
<feColorMatrix in="SourceAlpha" type="matrix" values="0 0 0 0 0 0 0 0 0 0 0 0 0 0 0 0 0 0 127 0" result="hardAlpha"/>
<feOffset/>
<feGaussianBlur stdDeviation="4.01163"/>
<feComposite in2="hardAlpha" operator="out"/>
<feColorMatrix type="matrix" values="0 0 0 0 0 0 0 0 0 0 0 0 0 0 0 0 0 0 0.25 0"/>
<feBlend mode="normal" in2="BackgroundImageFix" result="effect1_dropShadow_243_4250"/>
<feBlend mode="normal" in="SourceGraphic" in2="effect1_dropShadow_243_4250" result="shape"/>
</filter>
</defs>
</svg>
