<svg width="120" height="120" viewBox="0 0 120 120" fill="none" xmlns="http://www.w3.org/2000/svg">
<g filter="url(#filter0_d_1_40)">
<path d="M110 60C110 87.6142 87.6142 110 60 110C32.3858 110 10 87.6142 10 60C10 32.3858 32.3858 10 60 10C87.6142 10 110 32.3858 110 60Z" fill="#3366FF"/>
</g>
<path d="M71.0143 43.6563H48.9858C46.321 43.6563 44.1004 45.8769 44.1004 48.5417V70.4813C44.1004 73.146 46.321 75.3667 48.9858 75.3667H70.9254C73.5902 75.3667 75.8108 73.146 75.8108 70.4813V48.5417C75.8996 45.8769 73.679 43.6563 71.0143 43.6563Z" fill="white"/>
<path d="M49.963 43.1234H50.2295C50.7624 43.1234 51.2066 42.6793 51.2066 42.1463V38.0604C51.2066 37.5275 50.7624 37.0833 50.2295 37.0833H49.963C49.4301 37.0833 48.9859 37.5275 48.9859 38.0604V42.2352C49.0748 42.6793 49.5189 43.1234 49.963 43.1234Z" fill="white"/>
<path d="M53.9601 43.1234H54.2266C54.7595 43.1234 55.2036 42.6793 55.2036 42.1463V38.0604C55.2036 37.5275 54.7595 37.0833 54.2266 37.0833H53.9601C53.4271 37.0833 52.983 37.5275 52.983 38.0604V42.2352C52.983 42.6793 53.4271 43.1234 53.9601 43.1234Z" fill="white"/>
<path d="M57.8681 43.1234H58.1346C58.6675 43.1234 59.1117 42.6793 59.1117 42.1463V38.0604C59.1117 37.5275 58.6675 37.0833 58.1346 37.0833H57.8681C57.3352 37.0833 56.8911 37.5275 56.8911 38.0604V42.2352C56.9799 42.6793 57.424 43.1234 57.8681 43.1234Z" fill="white"/>
<path d="M61.8654 43.1234H62.1319C62.6648 43.1234 63.109 42.6793 63.109 42.1463V38.0604C63.109 37.5275 62.6648 37.0833 62.1319 37.0833H61.8654C61.3325 37.0833 60.8884 37.5275 60.8884 38.0604V42.2352C60.8884 42.6793 61.3325 43.1234 61.8654 43.1234Z" fill="white"/>
<path d="M65.7735 43.1234H66.04C66.5729 43.1234 67.017 42.6793 67.017 42.1463V38.0604C67.017 37.5275 66.5729 37.0833 66.04 37.0833H65.7735C65.2405 37.0833 64.7964 37.5275 64.7964 38.0604V42.2352C64.8852 42.6793 65.2405 43.1234 65.7735 43.1234Z" fill="white"/>
<path d="M69.7708 43.1234H70.0372C70.5702 43.1234 71.0143 42.6793 71.0143 42.1463V38.0604C71.0143 37.5275 70.5702 37.0833 70.0372 37.0833H69.7708C69.2378 37.0833 68.7937 37.5275 68.7937 38.0604V42.2352C68.7937 42.6793 69.2378 43.1234 69.7708 43.1234Z" fill="white"/>
<path d="M50.2295 75.9886H49.963C49.4301 75.9886 48.9859 76.4327 48.9859 76.9657V81.1404C48.9859 81.6734 49.4301 82.1175 49.963 82.1175H50.2295C50.7624 82.1175 51.2066 81.6734 51.2066 81.1404V76.9657C51.2066 76.4327 50.7624 75.9886 50.2295 75.9886Z" fill="white"/>
<path d="M54.2266 75.9886H53.9601C53.4271 75.9886 52.983 76.4327 52.983 76.9657V81.1404C52.983 81.6734 53.4271 82.1175 53.9601 82.1175H54.2266C54.7595 82.1175 55.2036 81.6734 55.2036 81.1404V76.9657C55.1148 76.4327 54.7595 75.9886 54.2266 75.9886Z" fill="white"/>
<path d="M58.1346 75.9886H57.8681C57.3352 75.9886 56.8911 76.4327 56.8911 76.9657V81.1404C56.8911 81.6734 57.3352 82.1175 57.8681 82.1175H58.1346C58.6675 82.1175 59.1117 81.6734 59.1117 81.1404V76.9657C59.1117 76.4327 58.6675 75.9886 58.1346 75.9886Z" fill="white"/>
<path d="M62.1319 75.9886H61.8654C61.3325 75.9886 60.8884 76.4327 60.8884 76.9657V81.1404C60.8884 81.6734 61.3325 82.1175 61.8654 82.1175H62.1319C62.6648 82.1175 63.109 81.6734 63.109 81.1404V76.9657C63.0201 76.4327 62.576 75.9886 62.1319 75.9886Z" fill="white"/>
<path d="M66.04 75.9886H65.7735C65.2405 75.9886 64.7964 76.4327 64.7964 76.9657V81.1404C64.7964 81.6734 65.2405 82.1175 65.7735 82.1175H66.04C66.5729 82.1175 67.017 81.6734 67.017 81.1404V76.9657C67.017 76.4327 66.5729 75.9886 66.04 75.9886Z" fill="white"/>
<path d="M70.0372 75.9886H69.7708C69.2378 75.9886 68.7937 76.4327 68.7937 76.9657V81.1404C68.7937 81.6734 69.2378 82.1175 69.7708 82.1175H70.0372C70.5702 82.1175 71.0143 81.6734 71.0143 81.1404V76.9657C70.9255 76.4327 70.4814 75.9886 70.0372 75.9886Z" fill="white"/>
<path d="M42.2351 68.3496H38.0604C37.5275 68.3496 37.0833 68.7937 37.0833 69.3266V69.5931C37.0833 70.1261 37.5275 70.5702 38.0604 70.5702H42.2351C42.7681 70.5702 43.2122 70.1261 43.2122 69.5931V69.3266C43.2122 68.7937 42.7681 68.3496 42.2351 68.3496Z" fill="white"/>
<path d="M42.2351 64.4413H38.0604C37.5275 64.4413 37.0833 64.8854 37.0833 65.4184V65.6848C37.0833 66.2178 37.5275 66.6619 38.0604 66.6619H42.2351C42.7681 66.6619 43.2122 66.2178 43.2122 65.6848V65.4184C43.2122 64.7966 42.7681 64.4413 42.2351 64.4413Z" fill="white"/>
<path d="M42.2351 60.4442H38.0604C37.5275 60.4442 37.0833 60.8884 37.0833 61.4213V61.6878C37.0833 62.2207 37.5275 62.6648 38.0604 62.6648H42.2351C42.7681 62.6648 43.2122 62.2207 43.2122 61.6878V61.4213C43.2122 60.8884 42.7681 60.4442 42.2351 60.4442Z" fill="white"/>
<path d="M42.2351 56.536H38.0604C37.5275 56.536 37.0833 56.9801 37.0833 57.513V57.7795C37.0833 58.3125 37.5275 58.7566 38.0604 58.7566H42.2351C42.7681 58.7566 43.2122 58.3125 43.2122 57.7795V57.513C43.2122 56.9801 42.7681 56.536 42.2351 56.536Z" fill="white"/>
<path d="M42.2351 52.5387H38.0604C37.5275 52.5387 37.0833 52.9828 37.0833 53.5157V53.7822C37.0833 54.3151 37.5275 54.7593 38.0604 54.7593H42.2351C42.7681 54.7593 43.2122 54.3151 43.2122 53.7822V53.5157C43.2122 52.9828 42.7681 52.5387 42.2351 52.5387Z" fill="white"/>
<path d="M42.2351 48.6306H38.0604C37.5275 48.6306 37.0833 49.0747 37.0833 49.6077V49.7853C37.0833 50.3183 37.5275 50.7624 38.0604 50.7624H42.2351C42.7681 50.7624 43.2122 50.3183 43.2122 49.7853V49.5189C43.2122 49.0747 42.7681 48.6306 42.2351 48.6306Z" fill="white"/>
<path d="M81.9396 68.3496H77.7648C77.2319 68.3496 76.7878 68.7937 76.7878 69.3266V69.5931C76.7878 70.1261 77.2319 70.5702 77.7648 70.5702H81.9396C82.4725 70.5702 82.9167 70.1261 82.9167 69.5931V69.3266C82.8278 68.7937 82.3837 68.3496 81.9396 68.3496Z" fill="white"/>
<path d="M81.9396 64.4413H77.7648C77.2319 64.4413 76.7878 64.8854 76.7878 65.4184V65.6848C76.7878 66.2178 77.2319 66.6619 77.7648 66.6619H81.9396C82.4725 66.6619 82.9167 66.2178 82.9167 65.6848V65.4184C82.8278 64.7966 82.3837 64.4413 81.9396 64.4413Z" fill="white"/>
<path d="M81.9396 60.4442H77.7648C77.2319 60.4442 76.7878 60.8884 76.7878 61.4213V61.6878C76.7878 62.2207 77.2319 62.6648 77.7648 62.6648H81.9396C82.4725 62.6648 82.9167 62.2207 82.9167 61.6878V61.4213C82.8278 60.8884 82.3837 60.4442 81.9396 60.4442Z" fill="white"/>
<path d="M81.9396 56.536H77.7648C77.2319 56.536 76.7878 56.9801 76.7878 57.513V57.7795C76.7878 58.3125 77.2319 58.7566 77.7648 58.7566H81.9396C82.4725 58.7566 82.9167 58.3125 82.9167 57.7795V57.513C82.8278 56.9801 82.3837 56.536 81.9396 56.536Z" fill="white"/>
<path d="M81.9396 52.5387H77.7648C77.2319 52.5387 76.7878 52.9828 76.7878 53.5157V53.7822C76.7878 54.3151 77.2319 54.7593 77.7648 54.7593H81.9396C82.4725 54.7593 82.9167 54.3151 82.9167 53.7822V53.5157C82.8278 52.9828 82.3837 52.5387 81.9396 52.5387Z" fill="white"/>
<path d="M81.9396 48.6306H77.7648C77.2319 48.6306 76.7878 49.0747 76.7878 49.6077V49.7853C76.7878 50.3183 77.2319 50.7624 77.7648 50.7624H81.9396C82.4725 50.7624 82.9167 50.3183 82.9167 49.7853V49.5189C82.8278 49.0747 82.3837 48.6306 81.9396 48.6306Z" fill="white"/>
<defs>
<filter id="filter0_d_1_40" x="0" y="0" width="120" height="120" filterUnits="userSpaceOnUse" color-interpolation-filters="sRGB">
<feFlood flood-opacity="0" result="BackgroundImageFix"/>
<feColorMatrix in="SourceAlpha" type="matrix" values="0 0 0 0 0 0 0 0 0 0 0 0 0 0 0 0 0 0 127 0" result="hardAlpha"/>
<feOffset/>
<feGaussianBlur stdDeviation="5"/>
<feComposite in2="hardAlpha" operator="out"/>
<feColorMatrix type="matrix" values="0 0 0 0 0 0 0 0 0 0 0 0 0 0 0 0 0 0 0.25 0"/>
<feBlend mode="normal" in2="BackgroundImageFix" result="effect1_dropShadow_1_40"/>
<feBlend mode="normal" in="SourceGraphic" in2="effect1_dropShadow_1_40" result="shape"/>
</filter>
</defs>
</svg>
