<svg width="520" height="520" viewBox="0 0 520 520" fill="none" xmlns="http://www.w3.org/2000/svg">
<g filter="url(#filter0_d_1_116)">
<path d="M510 260C510 398.071 398.071 510 260 510C121.929 510 10 398.071 10 260C10 121.929 121.929 10 260 10C398.071 10 510 121.929 510 260Z" fill="#444762"/>
</g>
<path d="M370.059 229.699L273.705 148.496C268.812 144.39 261.64 144.39 256.747 148.496L160.309 229.699C154.909 234.297 154.318 242.261 158.959 247.516C163.683 252.77 171.868 253.345 177.267 248.829L181.739 245.052V330.689C181.739 337.668 187.561 343.333 194.733 343.333H236.16V268.781H294.039V343.333H335.466C342.638 343.333 348.46 337.668 348.46 330.689V245.052L352.931 248.829C355.378 250.882 358.416 251.949 361.453 251.949C365.081 251.949 368.709 250.471 371.325 247.598C376.134 242.261 375.543 234.214 370.059 229.699Z" fill="white"/>
<defs>
<filter id="filter0_d_1_116" x="0" y="0" width="520" height="520" filterUnits="userSpaceOnUse" color-interpolation-filters="sRGB">
<feFlood flood-opacity="0" result="BackgroundImageFix"/>
<feColorMatrix in="SourceAlpha" type="matrix" values="0 0 0 0 0 0 0 0 0 0 0 0 0 0 0 0 0 0 127 0" result="hardAlpha"/>
<feOffset/>
<feGaussianBlur stdDeviation="5"/>
<feComposite in2="hardAlpha" operator="out"/>
<feColorMatrix type="matrix" values="0 0 0 0 0 0 0 0 0 0 0 0 0 0 0 0 0 0 0.25 0"/>
<feBlend mode="normal" in2="BackgroundImageFix" result="effect1_dropShadow_1_116"/>
<feBlend mode="normal" in="SourceGraphic" in2="effect1_dropShadow_1_116" result="shape"/>
</filter>
</defs>
</svg>
