<svg width="520" height="520" viewBox="0 0 520 520" fill="none" xmlns="http://www.w3.org/2000/svg">
<g filter="url(#filter0_d_1_105)">
<path d="M510 260C510 398.071 398.071 510 260 510C121.929 510 10 398.071 10 260C10 121.929 121.929 10 260 10C398.071 10 510 121.929 510 260Z" fill="#444762"/>
</g>
<path d="M362.473 208.101C361.033 194.378 355.783 182.265 345.622 172.523C334.869 162.273 321.829 157.784 307.434 157.022C282.963 155.666 224.791 154.819 204.384 158.207C181.014 162.019 165.772 175.657 159.337 198.698C154.341 216.318 155.357 298.061 158.236 315.596C162.216 339.569 176.357 354.901 200.066 361.084C216.493 365.32 297.273 364.812 315.393 361.847C339.356 357.95 354.767 343.889 361.033 320.17C365.775 301.958 364.166 224.45 362.473 208.101ZM343.336 312.208C340.542 330.42 328.433 341.686 310.143 343.719C293.293 345.583 218.271 346.599 202.691 342.195C187.788 338.044 179.236 327.794 176.78 312.801C174.409 298.485 173.816 226.737 176.78 207.593C179.49 189.55 191.598 178.283 209.803 176.25C228.262 174.217 294.648 173.963 312.345 176.674C330.55 179.469 341.727 191.583 343.76 209.88C345.622 226.991 346.13 293.826 343.336 312.208ZM260.016 206.491C230.464 206.491 206.586 230.379 206.586 260.027C206.586 289.506 230.464 313.309 259.846 313.394C289.398 313.478 313.361 289.591 313.361 260.027C313.446 230.379 289.567 206.491 260.016 206.491ZM259.677 294.504C240.879 294.419 225.468 278.917 225.468 259.773C225.468 240.714 240.964 225.381 260.185 225.381C279.237 225.381 294.563 240.883 294.563 260.112C294.563 279.256 279.068 294.504 259.677 294.504ZM328.01 204.543C328.01 211.489 322.421 216.995 315.478 216.995C308.535 216.995 303.031 211.489 302.946 204.543C302.861 197.512 308.535 191.921 315.563 191.921C322.506 192.006 328.01 197.597 328.01 204.543Z" fill="white"/>
<defs>
<filter id="filter0_d_1_105" x="0" y="0" width="520" height="520" filterUnits="userSpaceOnUse" color-interpolation-filters="sRGB">
<feFlood flood-opacity="0" result="BackgroundImageFix"/>
<feColorMatrix in="SourceAlpha" type="matrix" values="0 0 0 0 0 0 0 0 0 0 0 0 0 0 0 0 0 0 127 0" result="hardAlpha"/>
<feOffset/>
<feGaussianBlur stdDeviation="5"/>
<feComposite in2="hardAlpha" operator="out"/>
<feColorMatrix type="matrix" values="0 0 0 0 0 0 0 0 0 0 0 0 0 0 0 0 0 0 0.25 0"/>
<feBlend mode="normal" in2="BackgroundImageFix" result="effect1_dropShadow_1_105"/>
<feBlend mode="normal" in="SourceGraphic" in2="effect1_dropShadow_1_105" result="shape"/>
</filter>
</defs>
</svg>
