<svg width="500" height="500" viewBox="0 0 500 500" fill="none" xmlns="http://www.w3.org/2000/svg">
<path d="M500 250C500 388.071 388.071 500 250 500C111.929 500 0 388.071 0 250C0 111.929 111.929 0 250 0C388.071 0 500 111.929 500 250Z" fill="#3366FF"/>
<path d="M265.14 247.867C264.178 247.867 263.472 248.411 263.023 249.498C262.543 250.585 262.318 251.928 262.318 253.559C262.318 255.222 262.543 256.597 263.023 257.684C263.504 258.803 264.21 259.347 265.14 259.347C266.069 259.347 266.807 258.803 267.288 257.684C267.769 256.565 268.025 255.19 268.025 253.559C268.025 251.928 267.769 250.585 267.288 249.498C266.807 248.411 266.101 247.867 265.14 247.867Z" fill="white"/>
<path d="M279.086 247.867C278.124 247.867 277.419 248.411 276.97 249.498C276.489 250.585 276.265 251.928 276.265 253.559C276.265 255.222 276.489 256.597 276.97 257.684C277.451 258.803 278.156 259.347 279.086 259.347C280.016 259.347 280.753 258.803 281.234 257.684C281.715 256.565 281.972 255.19 281.972 253.559C281.972 251.928 281.715 250.585 281.234 249.498C280.753 248.411 280.048 247.867 279.086 247.867Z" fill="white"/>
<path d="M296.305 145.834H193.133C186.689 145.834 181.463 151.046 181.463 157.473V260.371C181.463 266.799 186.689 272.011 193.133 272.011H296.305C302.75 272.011 307.976 266.799 307.976 260.371V157.473C307.976 151.046 302.75 145.834 296.305 145.834ZM257.576 258.965L257.544 261.842L246.226 261.874C246.226 260.659 246.386 259.476 246.739 258.325C247.092 257.174 248.053 256.023 249.624 254.936L252.382 252.953C252.831 252.633 253.279 252.282 253.696 251.898C254.145 251.514 254.37 250.971 254.402 250.331C254.434 249.692 254.241 249.116 253.824 248.604C253.408 248.093 252.799 247.837 252.029 247.837C251.195 247.837 250.586 248.125 250.137 248.732C249.689 249.34 249.496 250.075 249.496 250.907H246.418C246.354 249.468 246.803 248.093 247.765 246.878C248.727 245.631 250.17 245.023 252.029 245.023C253.824 245.023 255.203 245.567 256.165 246.654C257.127 247.741 257.64 248.956 257.64 250.299C257.64 251.61 257.287 252.633 256.582 253.337C255.876 254.04 255.171 254.648 254.498 255.159L251.388 257.462C250.971 257.749 250.682 258.005 250.458 258.229C250.234 258.453 250.073 258.709 249.945 258.997L257.576 258.965ZM269.759 259.828C268.701 261.459 267.162 262.258 265.174 262.258C263.186 262.258 261.679 261.459 260.653 259.828C259.628 258.197 259.082 256.119 259.082 253.561C259.082 251.035 259.595 248.956 260.653 247.357C261.679 245.759 263.186 244.959 265.174 244.959C267.194 244.959 268.733 245.759 269.759 247.357C270.817 248.956 271.33 251.035 271.33 253.561C271.33 256.119 270.817 258.229 269.759 259.828ZM283.705 259.828C282.647 261.459 281.108 262.258 279.121 262.258C277.133 262.258 275.626 261.459 274.6 259.828C273.574 258.197 273.029 256.119 273.029 253.561C273.029 251.035 273.542 248.956 274.6 247.357C275.626 245.759 277.133 244.959 279.121 244.959C281.141 244.959 282.679 245.759 283.705 247.357C284.763 248.956 285.276 251.035 285.276 253.561C285.276 256.119 284.731 258.229 283.705 259.828ZM296.305 250.171C295.632 250.971 294.991 252.058 294.318 253.465C293.644 254.872 293.099 256.438 292.715 258.133C292.298 259.828 292.105 261.139 292.073 262.034H288.643C288.675 261.267 288.867 260.116 289.188 258.549C289.508 257.014 290.054 255.479 290.791 253.944C291.4 252.697 292.073 251.578 292.779 250.587C293.484 249.596 294.029 248.892 294.382 248.413L286.302 248.381V245.375H297.844L297.876 248.381C297.492 248.796 296.947 249.404 296.305 250.171ZM302.237 155.491L297.107 201.28C296.466 203.902 295.696 204.637 293.901 204.446C290.983 204.158 291.047 201.472 291.047 201.472C291.047 201.472 292.33 173.045 292.362 172.662C292.49 171.574 291.753 170.903 290.887 171.734C275.818 186.763 195.794 261.011 192.171 264.656C190.985 265.743 190.119 265.999 189.061 264.944C187.49 263.377 189.253 261.746 189.253 261.746C189.253 261.746 282.006 163.676 282.391 163.293C283.224 162.525 282.808 161.566 281.621 161.694C271.586 161.694 263.507 163.389 253.504 163.165C251.74 163.133 250.073 162.589 249.881 160.511C249.849 157.537 252.253 157.409 252.253 157.409L298.999 152.325C302.942 151.685 302.237 155.491 302.237 155.491Z" fill="white"/>
<path d="M87.4216 325.346C85.6508 327.778 83.1978 329.529 80.0772 330.63L93.1984 349.26H83.0817L70.9475 331.484H70.483V349.26H62.5V303.009H73.2553C75.8389 303.009 77.7403 303.096 78.9741 303.255C80.861 303.545 82.4576 304.109 83.7784 304.949C85.6653 306.035 87.1748 307.7 88.2924 309.929C89.4536 312.071 90.0342 314.402 90.0342 316.906C90.0197 320.149 89.1488 322.957 87.4216 325.346ZM80.0772 312.346C78.887 311.42 76.8985 310.957 74.1262 310.957H70.483V323.522H73.952C76.7969 323.522 78.8289 323.059 80.0191 322.132C81.2964 321.206 81.9205 319.599 81.9205 317.341C81.9205 314.981 81.3109 313.331 80.0772 312.346Z" fill="white"/>
<path d="M94.72 324.434C95.5328 322.291 96.7085 320.323 98.247 318.542C99.9453 316.646 101.876 315.184 104.024 314.17C106.216 313.157 108.494 312.65 110.846 312.65C113.241 312.65 115.49 313.099 117.61 313.982C119.729 314.909 121.659 316.284 123.386 318.108C125.012 319.845 126.275 321.857 127.204 324.115C128.133 326.388 128.597 328.69 128.597 331.035C128.597 333.423 128.147 335.769 127.262 338.07C126.449 340.343 125.331 342.312 123.909 344.02C122.138 345.96 120.164 347.465 118.016 348.507C115.781 349.564 113.487 350.085 111.136 350.085C108.625 350.085 106.303 349.622 104.14 348.696C101.977 347.726 100.105 346.351 98.5373 344.57C96.9117 342.833 95.6634 340.792 94.7781 338.447C93.9362 336.145 93.5008 333.814 93.5008 331.469C93.5008 329.008 93.9072 326.663 94.72 324.434ZM104.14 339.055C105.954 341.081 108.277 342.095 111.136 342.095C113.865 342.095 116.129 341.081 117.9 339.055C119.714 337.071 120.614 334.509 120.614 331.339C120.614 328.096 119.714 325.491 117.9 323.507C116.085 321.611 113.792 320.656 111.02 320.656C108.277 320.656 106.012 321.625 104.198 323.565C102.355 325.592 101.426 328.198 101.426 331.397C101.426 334.524 102.326 337.071 104.14 339.055Z" fill="white"/>
<path d="M145.318 349.072C143.693 348.464 142.154 347.581 140.688 346.408V349.26H132.894V303.009H140.587V316.486C142.125 315.27 143.722 314.387 145.391 313.823C147.046 313.258 148.816 312.969 150.703 312.969C153.171 312.969 155.421 313.418 157.467 314.301C159.543 315.198 161.415 316.544 163.07 318.368C164.608 320.105 165.813 322.089 166.655 324.318C167.54 326.547 167.99 328.892 167.99 331.353C167.99 336.579 166.292 340.98 162.91 344.584C159.514 348.189 155.333 349.984 150.369 349.984C148.613 349.984 146.93 349.68 145.318 349.072ZM143.301 339.113C145.231 341.168 147.496 342.21 150.123 342.21C152.895 342.21 155.232 341.183 157.119 339.113C159.078 337.042 160.065 334.466 160.065 331.339C160.065 328.299 159.078 325.795 157.119 323.811C155.232 321.872 152.924 320.902 150.181 320.902C147.438 320.902 145.159 321.901 143.301 323.869C141.414 325.939 140.47 328.545 140.47 331.701C140.456 334.553 141.399 337.013 143.301 339.113Z" fill="white"/>
<path d="M172.331 324.434C173.144 322.291 174.32 320.323 175.858 318.542C177.557 316.646 179.487 315.184 181.635 314.17C183.827 313.157 186.106 312.65 188.457 312.65C190.852 312.65 193.102 313.099 195.221 313.982C197.34 314.909 199.27 316.284 200.998 318.108C202.623 319.845 203.886 321.857 204.815 324.115C205.744 326.388 206.208 328.69 206.208 331.035C206.208 333.423 205.758 335.769 204.873 338.07C204.06 340.343 202.943 342.312 201.52 344.02C199.749 345.96 197.775 347.465 195.627 348.507C193.392 349.564 191.099 350.085 188.747 350.085C186.236 350.085 183.914 349.622 181.751 348.696C179.589 347.726 177.716 346.351 176.149 344.57C174.523 342.833 173.275 340.792 172.389 338.447C171.547 336.145 171.112 333.814 171.112 331.469C171.127 329.008 171.518 326.663 172.331 324.434ZM181.751 339.055C183.566 341.081 185.888 342.095 188.747 342.095C191.476 342.095 193.74 341.081 195.511 339.055C197.325 337.071 198.225 334.509 198.225 331.339C198.225 328.096 197.325 325.491 195.511 323.507C193.697 321.611 191.403 320.656 188.631 320.656C185.888 320.656 183.624 321.625 181.809 323.565C179.966 325.592 179.037 328.198 179.037 331.397C179.037 334.524 179.951 337.071 181.751 339.055Z" fill="white"/>
<path d="M212.362 321.336H207.906V313.808H212.362V303.009H219.982V313.808H224.554V321.336H219.982V349.26H212.348V321.336H212.362Z" fill="white"/>
<path d="M242.798 349.246V303.009H250.549L269.447 333.481V303.009H277.43V349.26H270.027L250.897 317.934V349.246H242.798Z" fill="white"/>
<path d="M330.933 346.641C327.537 348.943 323.633 350.101 319.206 350.101C315.925 350.101 312.863 349.406 310.018 348.031C307.173 346.699 304.647 344.73 302.441 342.139C300.627 339.909 299.248 337.42 298.276 334.669C297.318 331.832 296.824 328.879 296.824 325.81C296.824 322.567 297.405 319.513 298.551 316.646C299.713 313.737 301.396 311.102 303.631 308.757C305.751 306.571 308.116 304.921 310.744 303.777C313.4 302.648 316.23 302.084 319.235 302.084C323.749 302.084 327.711 303.271 331.137 305.659C334.678 308.12 337.465 311.725 339.468 316.458H330.338C328.916 314.388 327.276 312.883 325.418 311.913C323.604 311.015 321.528 310.581 319.177 310.581C317.246 310.581 315.475 310.928 313.864 311.609C312.21 312.333 310.744 313.404 309.466 314.823C308 316.314 306.897 318.022 306.172 319.918C305.446 321.814 305.068 323.798 305.068 325.868C305.068 328.054 305.402 330.095 306.055 331.991C306.752 333.887 307.768 335.552 309.118 336.971C310.424 338.462 311.963 339.62 313.748 340.431C315.475 341.241 317.29 341.647 319.177 341.647C321.455 341.647 323.473 341.183 325.244 340.257C327.058 339.33 328.64 337.926 329.99 336.073H339.526C337.32 340.735 334.446 344.252 330.933 346.641Z" fill="white"/>
<path d="M343.616 324.434C344.429 322.291 345.605 320.323 347.143 318.542C348.842 316.646 350.772 315.184 352.92 314.17C355.112 313.157 357.391 312.65 359.742 312.65C362.137 312.65 364.387 313.099 366.506 313.982C368.625 314.909 370.555 316.284 372.283 318.108C373.908 319.845 375.171 321.857 376.1 324.115C377.029 326.388 377.493 328.69 377.493 331.035C377.493 333.423 377.043 335.769 376.158 338.07C375.345 340.343 374.228 342.312 372.805 344.02C371.034 345.96 369.06 347.465 366.912 348.507C364.677 349.564 362.384 350.085 360.032 350.085C357.521 350.085 355.199 349.622 353.036 348.696C350.874 347.726 349.016 346.351 347.434 344.57C345.822 342.833 344.56 340.792 343.674 338.447C342.832 336.145 342.397 333.814 342.397 331.469C342.397 329.008 342.803 326.663 343.616 324.434ZM353.036 339.055C354.851 341.081 357.173 342.095 360.032 342.095C362.761 342.095 365.025 341.081 366.796 339.055C368.61 337.071 369.51 334.509 369.51 331.339C369.51 328.096 368.61 325.491 366.796 323.507C364.982 321.611 362.688 320.656 359.916 320.656C357.173 320.656 354.909 321.625 353.094 323.565C351.251 325.592 350.322 328.198 350.322 331.397C350.322 334.524 351.222 337.071 353.036 339.055Z" fill="white"/>
<path d="M428.268 349.248H420.575V328.736C420.575 326.029 420.067 324.002 419.066 322.67C418.108 321.411 416.671 320.788 414.784 320.788C412.505 320.788 410.952 321.541 410.096 323.032C409.283 324.494 408.877 327.056 408.877 330.733V349.248H401.3V331.356C401.3 327.549 400.85 324.856 399.965 323.278C399.079 321.613 397.555 320.788 395.392 320.788C393.114 320.788 391.503 321.599 390.53 323.22C389.601 324.798 389.137 327.433 389.137 331.11V349.263H381.734V313.811H388.788V316.055C389.862 315.041 391.009 314.317 392.199 313.869C393.36 313.463 394.623 313.261 396.017 313.261C398.063 313.261 399.848 313.623 401.387 314.346C402.969 315.114 404.333 316.33 405.495 317.994C406.685 316.373 408.107 315.157 409.776 314.346C411.402 313.623 413.26 313.261 415.379 313.261C419.109 313.261 422.186 314.578 424.567 317.198C426.991 319.876 428.21 323.408 428.21 327.824" fill="white"/>
</svg>
