<svg width="800" height="800" viewBox="0 0 800 800" fill="none" xmlns="http://www.w3.org/2000/svg">
<path d="M800 400C800 620.914 620.914 800 400 800C179.086 800 0 620.914 0 400C0 179.086 179.086 0 400 0C620.914 0 800 179.086 800 400Z" fill="#3366FF"/>
<path d="M424.223 396.588C422.684 396.588 421.556 397.457 420.838 399.197C420.068 400.936 419.709 403.085 419.709 405.694C419.709 408.355 420.068 410.555 420.838 412.294C421.607 414.085 422.736 414.955 424.223 414.955C425.711 414.955 426.891 414.085 427.66 412.294C428.43 410.504 428.84 408.304 428.84 405.694C428.84 403.085 428.43 400.936 427.66 399.197C426.891 397.457 425.762 396.588 424.223 396.588Z" fill="white"/>
<path d="M446.538 396.588C444.999 396.588 443.87 397.457 443.152 399.197C442.383 400.936 442.023 403.085 442.023 405.694C442.023 408.355 442.383 410.555 443.152 412.294C443.921 414.085 445.05 414.955 446.538 414.955C448.025 414.955 449.205 414.085 449.975 412.294C450.744 410.504 451.154 408.304 451.154 405.694C451.154 403.085 450.744 400.936 449.975 399.197C449.205 397.457 448.077 396.588 446.538 396.588Z" fill="white"/>
<path d="M474.089 233.334H309.013C298.702 233.334 290.34 241.673 290.34 251.957V416.594C290.34 426.878 298.702 435.217 309.013 435.217H474.089C484.399 435.217 492.761 426.878 492.761 416.594V251.957C492.761 241.673 484.399 233.334 474.089 233.334ZM412.121 414.343L412.07 418.948L393.962 418.999C393.962 417.055 394.218 415.162 394.782 413.32C395.347 411.478 396.886 409.636 399.399 407.897L403.811 404.725C404.529 404.213 405.247 403.651 405.914 403.037C406.632 402.423 406.991 401.553 407.043 400.53C407.094 399.506 406.786 398.586 406.119 397.767C405.452 396.948 404.478 396.539 403.246 396.539C401.913 396.539 400.938 397 400.22 397.972C399.502 398.944 399.194 400.12 399.194 401.451H394.269C394.167 399.148 394.885 396.948 396.424 395.004C397.963 393.009 400.271 392.037 403.246 392.037C406.119 392.037 408.325 392.907 409.864 394.646C411.403 396.386 412.224 398.33 412.224 400.479C412.224 402.576 411.659 404.213 410.531 405.339C409.402 406.464 408.274 407.436 407.196 408.255L402.221 411.939C401.554 412.399 401.092 412.808 400.733 413.167C400.374 413.525 400.117 413.934 399.912 414.394L412.121 414.343ZM431.614 415.725C429.921 418.334 427.459 419.613 424.279 419.613C421.098 419.613 418.687 418.334 417.046 415.725C415.404 413.115 414.532 409.79 414.532 405.697C414.532 401.655 415.353 398.33 417.046 395.772C418.687 393.214 421.098 391.935 424.279 391.935C427.51 391.935 429.973 393.214 431.614 395.772C433.307 398.33 434.128 401.655 434.128 405.697C434.128 409.79 433.307 413.167 431.614 415.725ZM453.929 415.725C452.236 418.334 449.774 419.613 446.593 419.613C443.413 419.613 441.002 418.334 439.36 415.725C437.719 413.115 436.846 409.79 436.846 405.697C436.846 401.655 437.667 398.33 439.36 395.772C441.002 393.214 443.413 391.935 446.593 391.935C449.825 391.935 452.287 393.214 453.929 395.772C455.621 398.33 456.442 401.655 456.442 405.697C456.442 409.79 455.57 413.167 453.929 415.725ZM474.089 400.274C473.011 401.553 471.985 403.292 470.908 405.544C469.831 407.795 468.959 410.301 468.343 413.013C467.676 415.725 467.369 417.822 467.317 419.255H461.829C461.88 418.027 462.188 416.185 462.701 413.678C463.214 411.222 464.086 408.767 465.265 406.311C466.24 404.316 467.317 402.525 468.446 400.939C469.574 399.353 470.447 398.227 471.011 397.46L458.084 397.409V392.6H476.551L476.602 397.409C475.987 398.074 475.115 399.046 474.089 400.274ZM483.579 248.785L475.371 322.048C474.345 326.243 473.114 327.42 470.241 327.113C465.573 326.653 465.676 322.355 465.676 322.355C465.676 322.355 467.728 276.873 467.779 276.259C467.984 274.519 466.804 273.445 465.419 274.775C441.309 298.821 313.27 417.618 307.474 423.45C305.576 425.19 304.191 425.599 302.498 423.91C299.984 421.404 302.805 418.794 302.805 418.794C302.805 418.794 451.21 261.882 451.825 261.268C453.159 260.04 452.492 258.506 450.594 258.71C434.538 258.71 421.611 261.422 405.606 261.064C402.785 261.012 400.117 260.143 399.81 256.817C399.758 252.059 403.606 251.855 403.606 251.855L478.398 243.72C484.707 242.697 483.579 248.785 483.579 248.785Z" fill="white"/>
<path d="M139.875 520.553C137.041 524.444 133.117 527.247 128.123 529.007L149.117 558.816H132.931L113.516 530.374H112.773V558.816H100V484.815H117.209C121.342 484.815 124.385 484.954 126.359 485.209C129.378 485.672 131.932 486.575 134.045 487.919C137.064 489.656 139.48 492.319 141.268 495.886C143.126 499.314 144.055 503.043 144.055 507.05C144.031 512.238 142.638 516.732 139.875 520.553ZM128.123 499.754C126.219 498.272 123.038 497.531 118.602 497.531H112.773V517.635H118.323C122.875 517.635 126.126 516.894 128.031 515.411C130.074 513.929 131.073 511.358 131.073 507.745C131.073 503.97 130.097 501.329 128.123 499.754Z" fill="white"/>
<path d="M151.552 519.094C152.852 515.666 154.734 512.516 157.195 509.667C159.912 506.633 163.001 504.294 166.438 502.672C169.945 501.051 173.591 500.24 177.353 500.24C181.185 500.24 184.785 500.958 188.175 502.371C191.566 503.854 194.655 506.054 197.418 508.972C200.019 511.752 202.04 514.971 203.526 518.584C205.012 522.221 205.755 525.904 205.755 529.656C205.755 533.477 205.035 537.23 203.619 540.912C202.318 544.549 200.53 547.699 198.254 550.432C195.421 553.535 192.263 555.944 188.825 557.612C185.249 559.303 181.58 560.137 177.818 560.137C173.8 560.137 170.084 559.395 166.624 557.913C163.164 556.361 160.168 554.161 157.66 551.312C155.059 548.533 153.062 545.267 151.645 541.515C150.298 537.832 149.601 534.103 149.601 530.351C149.601 526.413 150.251 522.661 151.552 519.094ZM166.624 542.487C169.527 545.73 173.243 547.351 177.818 547.351C182.184 547.351 185.806 545.73 188.64 542.487C191.543 539.314 192.982 535.215 192.982 530.142C192.982 524.954 191.543 520.785 188.64 517.612C185.737 514.578 182.067 513.049 177.632 513.049C173.243 513.049 169.62 514.601 166.717 517.704C163.767 520.947 162.281 525.116 162.281 530.235C162.281 535.238 163.721 539.314 166.624 542.487Z" fill="white"/>
<path d="M232.509 558.515C229.908 557.542 227.447 556.13 225.101 554.253V558.816H212.63V484.815H224.939V506.378C227.4 504.433 229.955 503.02 232.626 502.117C235.273 501.213 238.106 500.75 241.125 500.75C245.073 500.75 248.673 501.468 251.947 502.881C255.268 504.317 258.264 506.471 260.912 509.389C263.373 512.169 265.301 515.342 266.648 518.909C268.064 522.476 268.784 526.228 268.784 530.165C268.784 538.527 266.067 545.568 260.656 551.335C255.222 557.102 248.534 559.974 240.591 559.974C237.781 559.974 235.087 559.488 232.509 558.515ZM229.281 542.58C232.37 545.869 235.993 547.537 240.196 547.537C244.632 547.537 248.371 545.892 251.39 542.58C254.525 539.268 256.104 535.145 256.104 530.142C256.104 525.278 254.525 521.271 251.39 518.098C248.371 514.994 244.678 513.443 240.289 513.443C235.9 513.443 232.254 515.041 229.281 518.191C226.262 521.503 224.753 525.672 224.753 530.721C224.73 535.284 226.239 539.222 229.281 542.58Z" fill="white"/>
<path d="M275.73 519.094C277.031 515.666 278.912 512.516 281.373 509.667C284.09 506.633 287.179 504.294 290.616 502.672C294.123 501.051 297.769 500.24 301.531 500.24C305.363 500.24 308.963 500.958 312.353 502.371C315.744 503.854 318.833 506.054 321.596 508.972C324.197 511.752 326.218 514.971 327.704 518.584C329.19 522.221 329.933 525.904 329.933 529.656C329.933 533.477 329.213 537.23 327.797 540.912C326.496 544.549 324.708 547.699 322.432 550.432C319.599 553.535 316.441 555.944 313.004 557.612C309.427 559.303 305.758 560.137 301.996 560.137C297.978 560.137 294.262 559.395 290.802 557.913C287.342 556.361 284.346 554.161 281.838 551.312C279.237 548.533 277.24 545.267 275.823 541.515C274.476 537.832 273.779 534.103 273.779 530.351C273.803 526.413 274.43 522.661 275.73 519.094ZM290.802 542.487C293.705 545.73 297.421 547.351 301.996 547.351C306.362 547.351 309.984 545.73 312.818 542.487C315.721 539.314 317.161 535.215 317.161 530.142C317.161 524.954 315.721 520.785 312.818 517.612C309.915 514.578 306.246 513.049 301.81 513.049C297.421 513.049 293.798 514.601 290.895 517.704C287.946 520.947 286.459 525.116 286.459 530.235C286.459 535.238 287.922 539.314 290.802 542.487Z" fill="white"/>
<path d="M339.779 514.138H332.65V502.093H339.779V484.815H351.972V502.093H359.287V514.138H351.972V558.816H339.756V514.138H339.779Z" fill="white"/>
<path d="M388.477 558.793V484.815H400.878L431.115 533.57V484.815H443.888V558.816H432.044L401.435 508.695V558.793H388.477Z" fill="white"/>
<path d="M529.493 554.625C524.059 558.308 517.812 560.161 510.729 560.161C505.481 560.161 500.58 559.049 496.029 556.849C491.477 554.718 487.436 551.568 483.906 547.422C481.003 543.855 478.797 539.871 477.241 535.471C475.708 530.931 474.919 526.206 474.919 521.296C474.919 516.107 475.848 511.22 477.682 506.634C479.54 501.979 482.234 497.763 485.81 494.011C489.201 490.514 492.986 487.873 497.19 486.044C501.44 484.237 505.968 483.334 510.775 483.334C517.998 483.334 524.338 485.233 529.819 489.055C535.485 492.992 539.944 498.759 543.149 506.333H528.541C526.265 503.021 523.641 500.612 520.669 499.06C517.766 497.624 514.445 496.93 510.683 496.93C507.594 496.93 504.761 497.486 502.183 498.574C499.535 499.732 497.19 501.446 495.146 503.716C492.801 506.102 491.036 508.835 489.874 511.869C488.713 514.903 488.109 518.076 488.109 521.388C488.109 524.886 488.644 528.152 489.689 531.186C490.803 534.22 492.429 536.883 494.589 539.153C496.679 541.539 499.141 543.392 501.997 544.689C504.761 545.986 507.664 546.635 510.683 546.635C514.329 546.635 517.557 545.893 520.39 544.411C523.293 542.929 525.824 540.682 527.984 537.717H543.242C539.712 545.175 535.114 550.804 529.493 554.625Z" fill="white"/>
<path d="M549.786 519.094C551.087 515.666 552.968 512.516 555.429 509.667C558.146 506.633 561.235 504.294 564.672 502.672C568.179 501.051 571.825 500.24 575.587 500.24C579.419 500.24 583.019 500.958 586.409 502.371C589.8 503.854 592.889 506.054 595.652 508.972C598.253 511.752 600.274 514.971 601.76 518.584C603.246 522.221 603.989 525.904 603.989 529.656C603.989 533.477 603.269 537.23 601.853 540.912C600.552 544.549 598.764 547.699 596.488 550.432C593.655 553.535 590.497 555.944 587.06 557.612C583.483 559.303 579.814 560.137 576.052 560.137C572.034 560.137 568.318 559.395 564.858 557.913C561.398 556.361 558.425 554.161 555.894 551.312C553.316 548.533 551.296 545.267 549.879 541.515C548.532 537.832 547.835 534.103 547.835 530.351C547.835 526.413 548.485 522.661 549.786 519.094ZM564.858 542.487C567.761 545.73 571.477 547.351 576.052 547.351C580.418 547.351 584.04 545.73 586.874 542.487C589.777 539.314 591.216 535.215 591.216 530.142C591.216 524.954 589.777 520.785 586.874 517.612C583.971 514.578 580.302 513.049 575.866 513.049C571.477 513.049 567.854 514.601 564.951 517.704C562.002 520.947 560.515 525.116 560.515 530.235C560.515 535.238 561.955 539.314 564.858 542.487Z" fill="white"/>
<path d="M685.229 558.797H672.92V525.977C672.92 521.646 672.108 518.403 670.505 516.272C668.972 514.257 666.673 513.261 663.654 513.261C660.008 513.261 657.523 514.465 656.153 516.851C654.853 519.19 654.202 523.29 654.202 529.173V558.797H642.08V530.169C642.08 524.078 641.36 519.77 639.943 517.245C638.527 514.581 636.088 513.261 632.628 513.261C628.982 513.261 626.404 514.558 624.848 517.152C623.362 519.677 622.619 523.892 622.619 529.775V558.82H610.775V502.097H622.061V505.687C623.78 504.066 625.614 502.908 627.519 502.19C629.377 501.541 631.397 501.217 633.627 501.217C636.901 501.217 639.757 501.796 642.219 502.954C644.751 504.182 646.933 506.127 648.791 508.791C650.696 506.197 652.972 504.251 655.642 502.954C658.243 501.796 661.216 501.217 664.606 501.217C670.575 501.217 675.498 503.325 679.307 507.517C683.185 511.802 685.136 517.453 685.136 524.518" fill="white"/>
</svg>
