<svg width="100" height="125" viewBox="0 0 100 125" fill="none" xmlns="http://www.w3.org/2000/svg">
<path d="M78.3001 22.1H22.6001C20.4001 22.1 18.6001 23.9 18.6001 26.1C18.6001 28.3 20.4001 30.1 22.6001 30.1H78.3001C80.5001 30.1 82.3001 28.3 82.3001 26.1C82.3001 23.9 80.5001 22.1 78.3001 22.1Z" fill="white"/>
<path d="M78.3001 47H22.6001C20.4001 47 18.6001 48.8 18.6001 51C18.6001 53.2 20.4001 55 22.6001 55H78.3001C80.5001 55 82.3001 53.2 82.3001 51C82.3001 48.8 80.5001 47 78.3001 47Z" fill="white"/>
<path d="M78.3001 71.8H22.6001C20.4001 71.8 18.6001 73.6 18.6001 75.8C18.6001 78 20.4001 79.8 22.6001 79.8H78.3001C80.5001 79.8 82.3001 78 82.3001 75.8C82.3001 73.6 80.5001 71.8 78.3001 71.8Z" fill="white"/>
</svg>
