<svg width="120" height="120" viewBox="0 0 120 120" fill="none" xmlns="http://www.w3.org/2000/svg">
<g filter="url(#filter0_d_1_33)">
<path d="M110 60C110 87.6142 87.6142 110 60 110C32.3858 110 10 87.6142 10 60C10 32.3858 32.3858 10 60 10C87.6142 10 110 32.3858 110 60Z" fill="#3366FF"/>
</g>
<path d="M60 37.0833C47.3636 37.0833 37.0833 47.3636 37.0833 59.9993C37.0833 72.6351 47.3636 82.9167 60 82.9167C72.6364 82.9167 82.9167 72.6357 82.9167 60C82.9167 47.3643 72.6364 37.0833 60 37.0833ZM39.8049 61.3361H44.3481C44.5024 64.3843 45.1818 67.3049 46.2894 69.9603H42.3861C40.9225 67.383 40.0093 64.4551 39.8049 61.3361ZM61.336 47.3669V40.7602C64.5139 42.0047 67.2521 44.3435 69.2782 47.3669H61.336ZM70.7926 50.039C72.0312 52.6377 72.7954 55.5737 72.9691 58.6639H61.336V50.039H70.7926ZM58.6639 40.7602V47.3669H50.7218C52.7479 44.3435 55.4861 42.0047 58.6639 40.7602ZM58.6639 50.039V58.6639H47.0302C47.2039 55.5743 47.9675 52.6377 49.2067 50.039H58.6639ZM44.3475 58.6639H39.8042C40.0086 55.5443 40.9218 52.617 42.3855 50.039H46.2887C45.1818 52.6951 44.5024 55.6164 44.3475 58.6639ZM47.0302 61.3361H58.6639V69.9603H49.206C47.9675 67.3623 47.2039 64.4257 47.0302 61.3361ZM58.6639 72.6324V79.2398C55.4855 77.9953 52.7479 75.6566 50.7211 72.6324H58.6639ZM61.336 79.2398V72.6324H69.2789C67.2521 75.6566 64.5145 77.9953 61.336 79.2398ZM61.336 69.9603V61.3361H72.9691C72.7961 64.4257 72.0325 67.3623 70.7933 69.9603H61.336ZM75.6525 61.3361H80.1958C79.9914 64.4551 79.0775 67.383 77.6145 69.9603H73.7112C74.8188 67.3049 75.4976 64.3843 75.6525 61.3361ZM75.6525 58.6639C75.4976 55.6157 74.8182 52.6951 73.7106 50.039H77.6145C79.0775 52.617 79.992 55.5443 80.1958 58.6639H75.6525ZM75.8022 47.3669H72.4026C70.9864 44.8752 69.164 42.7108 67.0357 41.0187C70.5067 42.3093 73.5269 44.5265 75.8022 47.3669ZM52.9643 41.0187C50.836 42.7108 49.013 44.8752 47.5974 47.3669H44.1978C46.4731 44.5265 49.4939 42.3093 52.9643 41.0187ZM44.1978 72.6324H47.5967C49.013 75.1235 50.8353 77.2892 52.9637 78.9807C49.4933 77.69 46.4724 75.4728 44.1978 72.6324ZM67.0363 78.9813C69.1647 77.2892 70.987 75.1241 72.4033 72.6324H75.8022C73.5269 75.4728 70.5067 77.69 67.0363 78.9813Z" fill="white"/>
<defs>
<filter id="filter0_d_1_33" x="0" y="0" width="120" height="120" filterUnits="userSpaceOnUse" color-interpolation-filters="sRGB">
<feFlood flood-opacity="0" result="BackgroundImageFix"/>
<feColorMatrix in="SourceAlpha" type="matrix" values="0 0 0 0 0 0 0 0 0 0 0 0 0 0 0 0 0 0 127 0" result="hardAlpha"/>
<feOffset/>
<feGaussianBlur stdDeviation="5"/>
<feComposite in2="hardAlpha" operator="out"/>
<feColorMatrix type="matrix" values="0 0 0 0 0 0 0 0 0 0 0 0 0 0 0 0 0 0 0.25 0"/>
<feBlend mode="normal" in2="BackgroundImageFix" result="effect1_dropShadow_1_33"/>
<feBlend mode="normal" in="SourceGraphic" in2="effect1_dropShadow_1_33" result="shape"/>
</filter>
</defs>
</svg>
