<svg width="120" height="120" viewBox="0 0 120 120" fill="none" xmlns="http://www.w3.org/2000/svg">
<g filter="url(#filter0_d_1_77)">
<path d="M110 60C110 87.6142 87.6142 110 60 110C32.3858 110 10 87.6142 10 60C10 32.3858 32.3858 10 60 10C87.6142 10 110 32.3858 110 60Z" fill="#3366FF"/>
</g>
<path fill-rule="evenodd" clip-rule="evenodd" d="M60.745 35C64.7171 35 67.9667 38.2491 67.9667 42.2212V57.7748C67.9667 61.7459 64.7171 64.9955 60.745 64.9955C56.7738 64.9955 53.5243 61.7455 53.5243 57.7748V42.2212C53.5243 38.2496 56.7738 35 60.745 35Z" fill="white"/>
<path fill-rule="evenodd" clip-rule="evenodd" d="M75.3727 58.2112C75.3727 62.2362 73.7275 65.8935 71.0774 68.5435C68.9242 70.6968 66.1065 72.1864 62.9674 72.6689V74.6707H70.457C71.6843 74.6707 72.679 75.6649 72.679 76.8917C72.679 78.1185 71.6843 79.1137 70.457 79.1137H51.0331C49.8058 79.1137 48.8111 78.1185 48.8111 76.8917C48.8111 75.6649 49.8062 74.6707 51.0331 74.6707H58.5231V72.6689C55.3836 72.1864 52.5659 70.6968 50.4127 68.5435C47.7631 65.8935 46.1183 62.2362 46.1183 58.2112C46.1183 56.2135 46.1183 54.2163 46.1183 52.2191C46.1183 50.9923 47.113 49.9977 48.3403 49.9977C49.5671 49.9977 50.5622 50.9928 50.5622 52.2191C50.5622 54.2168 50.5622 56.214 50.5622 58.2112C50.5622 61.0094 51.7082 63.5554 53.555 65.4012C55.4017 67.2485 57.9468 68.3945 60.745 68.3945C63.5432 68.3945 66.0888 67.248 67.9356 65.4012C69.7833 63.555 70.9284 61.0094 70.9284 58.2112C70.9284 56.2135 70.9284 54.2163 70.9284 52.2191C70.9284 50.9923 71.9235 49.9977 73.1503 49.9977C74.3771 49.9977 75.3727 50.9923 75.3727 52.2191C75.3727 54.2168 75.3727 56.214 75.3727 58.2112Z" fill="white"/>
<defs>
<filter id="filter0_d_1_77" x="0" y="0" width="120" height="120" filterUnits="userSpaceOnUse" color-interpolation-filters="sRGB">
<feFlood flood-opacity="0" result="BackgroundImageFix"/>
<feColorMatrix in="SourceAlpha" type="matrix" values="0 0 0 0 0 0 0 0 0 0 0 0 0 0 0 0 0 0 127 0" result="hardAlpha"/>
<feOffset/>
<feGaussianBlur stdDeviation="5"/>
<feComposite in2="hardAlpha" operator="out"/>
<feColorMatrix type="matrix" values="0 0 0 0 0 0 0 0 0 0 0 0 0 0 0 0 0 0 0.25 0"/>
<feBlend mode="normal" in2="BackgroundImageFix" result="effect1_dropShadow_1_77"/>
<feBlend mode="normal" in="SourceGraphic" in2="effect1_dropShadow_1_77" result="shape"/>
</filter>
</defs>
</svg>
