<svg width="68" height="68" viewBox="0 0 68 68" fill="none" xmlns="http://www.w3.org/2000/svg">
<g filter="url(#filter0_d_306_3827)">
<path d="M58 34C58 47.2548 47.2548 58 34 58C20.7452 58 10 47.2548 10 34C10 20.7452 20.7452 10 34 10C47.2548 10 58 20.7452 58 34Z" fill="#A6913D"/>
</g>
<path d="M38.2492 23H25.1506C24.5159 23 24 23.7375 24 24.6437V39.2381C24 40.1045 24.4935 40.8095 25.1 40.8095H38.2998C38.9062 40.8095 39.3997 40.1045 39.3997 39.2381V24.6437C39.3997 23.7375 38.8839 23 38.2492 23ZM37.9331 38.1905C37.9331 38.4796 37.7692 38.7143 37.5664 38.7143H25.8333C25.6305 38.7143 25.4666 38.4796 25.4666 38.1905V25.619C25.4666 25.3299 25.6305 25.0952 25.8333 25.0952H37.5664C37.7692 25.0952 37.9331 25.3299 37.9331 25.619V38.1905Z" fill="white"/>
<path d="M34.267 40.2855V42.3808C34.267 42.6699 34.1031 42.9046 33.9004 42.9046H29.5004C29.2977 42.9046 29.1338 42.6699 29.1338 42.3808V40.2855C29.1338 39.9964 29.2977 39.7617 29.5004 39.7617H33.9004C34.1031 39.7617 34.267 39.9964 34.267 40.2855Z" fill="white"/>
<path d="M36.8334 44.4762C36.8334 44.7654 36.6695 45 36.4667 45H26.9336C26.7308 45 26.5669 44.7654 26.5669 44.4762C26.5669 43.0321 27.3893 41.8572 28.4002 41.8572H35.0001C36.011 41.8572 36.8334 43.0321 36.8334 44.4762Z" fill="white"/>
<path d="M44.9004 23H41.2338C40.6273 23 40.1338 23.705 40.1338 24.5714V43.4286C40.1338 44.295 40.6273 45 41.2338 45H44.9004C45.5068 45 46.0004 44.295 46.0004 43.4286V24.5714C46.0004 23.705 45.5068 23 44.9004 23ZM43.0671 25.619C43.6735 25.619 44.1671 26.3241 44.1671 27.1905C44.1671 28.0569 43.6735 28.7619 43.0671 28.7619C42.4606 28.7619 41.9671 28.0569 41.9671 27.1905C41.9671 26.3241 42.4606 25.619 43.0671 25.619ZM44.5337 42.381C44.5337 42.6701 44.3698 42.9048 44.1671 42.9048H41.9671C41.7643 42.9048 41.6004 42.6701 41.6004 42.381V39.2381C41.6004 38.949 41.7643 38.7143 41.9671 38.7143H44.1671C44.3698 38.7143 44.5337 38.949 44.5337 39.2381V42.381Z" fill="white"/>
<path fill-rule="evenodd" clip-rule="evenodd" d="M33.5 17C32.1223 17 31 17.8016 31 18.7857C31 19.2836 31.2877 19.7344 31.75 20.0587V21.8214C31.75 21.8519 31.7609 21.8818 31.7816 21.9084C31.8024 21.935 31.8323 21.9573 31.8686 21.9733C31.9048 21.9893 31.9462 21.9984 31.9888 21.9998C32.0313 22.0012 32.0737 21.9948 32.1118 21.9812L33.5 21.4852L34.8882 21.9812C34.9263 21.9948 34.9687 22.0012 35.0112 21.9998C35.0538 21.9984 35.0952 21.9893 35.1314 21.9733C35.1677 21.9573 35.1976 21.935 35.2184 21.9084C35.2391 21.8818 35.25 21.8519 35.25 21.8214V20.0587C35.7123 19.7344 36 19.2836 36 18.7857C36 17.8016 34.8777 17 33.5 17ZM33.5 17.6885C33.5472 17.6885 33.5934 17.698 33.6333 17.7159C33.6732 17.7338 33.7052 17.7593 33.7256 17.7896L34.0811 18.3135L34.8901 18.3923C34.9368 18.3968 34.9808 18.4106 35.017 18.4321C35.0532 18.4536 35.0802 18.4819 35.0947 18.5138C35.1093 18.5457 35.111 18.5799 35.0995 18.6125C35.088 18.645 35.0638 18.6746 35.0298 18.6978L34.4399 19.1L34.585 19.6726C34.5933 19.7057 34.5885 19.7397 34.5709 19.7709C34.5533 19.802 34.5237 19.829 34.4856 19.8487C34.4474 19.8684 34.4022 19.88 34.3552 19.8823C34.3082 19.8845 34.2612 19.8772 34.2197 19.8613L33.5 19.5861L32.7803 19.8613C32.7246 19.8826 32.6597 19.888 32.5986 19.8767C32.5376 19.8654 32.4847 19.8381 32.4507 19.8003C32.4166 19.7624 32.4039 19.7169 32.415 19.6726L32.5601 19.0999L31.9702 18.6978C31.9362 18.6746 31.912 18.645 31.9005 18.6125C31.889 18.5799 31.8907 18.5457 31.9053 18.5138C31.9198 18.4819 31.9468 18.4536 31.983 18.4321C32.0192 18.4106 32.0632 18.3968 32.1099 18.3923L32.9189 18.3135L33.2744 17.7896C33.2948 17.7593 33.3268 17.7338 33.3667 17.7159C33.4066 17.698 33.4528 17.6885 33.5 17.6885ZM32.25 20.3308C32.6181 20.4834 33.0449 20.5714 33.5 20.5714C33.9551 20.5714 34.3819 20.4834 34.75 20.3308V21.5326L33.6118 21.126C33.5771 21.1136 33.5388 21.1071 33.5 21.1071C33.4612 21.1071 33.4229 21.1136 33.3882 21.126L32.25 21.5326V20.3308Z" fill="white"/>
<defs>
<filter id="filter0_d_306_3827" x="0" y="0" width="68" height="68" filterUnits="userSpaceOnUse" color-interpolation-filters="sRGB">
<feFlood flood-opacity="0" result="BackgroundImageFix"/>
<feColorMatrix in="SourceAlpha" type="matrix" values="0 0 0 0 0 0 0 0 0 0 0 0 0 0 0 0 0 0 127 0" result="hardAlpha"/>
<feOffset/>
<feGaussianBlur stdDeviation="5"/>
<feComposite in2="hardAlpha" operator="out"/>
<feColorMatrix type="matrix" values="0 0 0 0 0 0 0 0 0 0 0 0 0 0 0 0 0 0 0.25 0"/>
<feBlend mode="normal" in2="BackgroundImageFix" result="effect1_dropShadow_306_3827"/>
<feBlend mode="normal" in="SourceGraphic" in2="effect1_dropShadow_306_3827" result="shape"/>
</filter>
</defs>
</svg>
