<svg width="68" height="68" viewBox="0 0 68 68" fill="none" xmlns="http://www.w3.org/2000/svg">
<g filter="url(#filter0_d_307_3852)">
<path d="M58 34C58 47.2548 47.2548 58 34 58C20.7452 58 10 47.2548 10 34C10 20.7452 20.7452 10 34 10C47.2548 10 58 20.7452 58 34Z" fill="#3366FF"/>
</g>
<path fill-rule="evenodd" clip-rule="evenodd" d="M33.5 18C32.1223 18 31 18.8016 31 19.7857C31 20.2836 31.2877 20.7344 31.75 21.0587V22.8214C31.75 22.8519 31.7609 22.8818 31.7816 22.9084C31.8024 22.935 31.8323 22.9573 31.8686 22.9733C31.9048 22.9893 31.9462 22.9984 31.9888 22.9998C32.0313 23.0012 32.0737 22.9948 32.1118 22.9812L33.5 22.4852L34.8882 22.9812C34.9263 22.9948 34.9687 23.0012 35.0112 22.9998C35.0538 22.9984 35.0952 22.9893 35.1314 22.9733C35.1677 22.9573 35.1976 22.935 35.2184 22.9084C35.2391 22.8818 35.25 22.8519 35.25 22.8214V21.0587C35.7123 20.7344 36 20.2836 36 19.7857C36 18.8016 34.8777 18 33.5 18ZM33.5 18.6885C33.5472 18.6885 33.5934 18.698 33.6333 18.7159C33.6732 18.7338 33.7052 18.7593 33.7256 18.7896L34.0811 19.3135L34.8901 19.3923C34.9368 19.3968 34.9808 19.4106 35.017 19.4321C35.0532 19.4536 35.0802 19.4819 35.0947 19.5138C35.1093 19.5457 35.111 19.5799 35.0995 19.6125C35.088 19.645 35.0638 19.6746 35.0298 19.6978L34.4399 20.1L34.585 20.6726C34.5933 20.7057 34.5885 20.7397 34.5709 20.7709C34.5533 20.802 34.5237 20.829 34.4856 20.8487C34.4474 20.8684 34.4022 20.88 34.3552 20.8823C34.3082 20.8845 34.2612 20.8772 34.2197 20.8613L33.5 20.5861L32.7803 20.8613C32.7246 20.8826 32.6597 20.888 32.5986 20.8767C32.5376 20.8654 32.4847 20.8381 32.4507 20.8003C32.4166 20.7624 32.4039 20.7169 32.415 20.6726L32.5601 20.0999L31.9702 19.6978C31.9362 19.6746 31.912 19.645 31.9005 19.6125C31.889 19.5799 31.8907 19.5457 31.9053 19.5138C31.9198 19.4819 31.9468 19.4536 31.983 19.4321C32.0192 19.4106 32.0632 19.3968 32.1099 19.3923L32.9189 19.3135L33.2744 18.7896C33.2948 18.7593 33.3268 18.7338 33.3667 18.7159C33.4066 18.698 33.4528 18.6885 33.5 18.6885ZM32.25 21.3308C32.6181 21.4834 33.0449 21.5714 33.5 21.5714C33.9551 21.5714 34.3819 21.4834 34.75 21.3308V22.5326L33.6118 22.126C33.5771 22.1136 33.5388 22.1071 33.5 22.1071C33.4612 22.1071 33.4229 22.1136 33.3882 22.126L32.25 22.5326V21.3308Z" fill="#FDD015"/>
<path fill-rule="evenodd" clip-rule="evenodd" d="M25.625 39.8438L29.3481 43.5328H25.4149V41.0456C25.4522 40.6344 25.5236 40.2332 25.625 39.8438ZM37.1848 41.7937C37.0148 41.7605 36.8929 41.613 36.8929 41.4418V39.7741C36.8929 39.6026 37.0148 39.4551 37.1848 39.4222L38.0108 39.2605L38.3085 38.5499L37.8394 37.8567C37.7427 37.7144 37.7619 37.5242 37.8841 37.4028L38.5977 36.6957C37.2101 35.1722 35.2017 34.2145 32.9673 34.2145C30.8156 34.2145 28.8735 35.1028 27.4935 36.5289L34.5623 43.5331H37.7789C37.7833 43.4727 37.8034 43.4125 37.8396 43.3594L38.3088 42.6663L38.011 41.9554L37.1848 41.7937ZM32.9673 33.7834C34.9125 33.7834 36.5388 32.298 36.9407 30.3129H28.9938C29.3956 32.298 31.0222 33.7834 32.9673 33.7834ZM34.3926 24.2746C34.2577 24.2267 34.1201 24.1856 33.9798 24.1513L34.1704 26.2352C34.1797 26.3356 34.1457 26.4352 34.077 26.5098C34.0083 26.5841 33.9111 26.6266 33.8095 26.6266H32.1247C32.0225 26.6266 31.9255 26.5841 31.8569 26.5098C31.7882 26.4352 31.7544 26.3356 31.7635 26.2352L31.9541 24.1516C31.8247 24.1832 31.6976 24.2207 31.5729 24.264L31.1422 27.0824H34.8211L34.3926 24.2746ZM28.2783 29.5947H37.6562C37.9284 29.5947 38.1511 29.374 38.1511 29.1043C38.1511 28.8346 37.9284 28.6138 37.6562 28.6138H37.4329C37.3911 26.9153 36.4962 25.4402 35.1825 24.6483L35.6011 27.3875C35.6341 27.6044 35.4643 27.8001 35.2429 27.8001H30.7214C30.5 27.8001 30.33 27.6044 30.3632 27.3875L30.7846 24.6292C29.453 25.4163 28.5436 26.9014 28.5016 28.6138H28.2783C28.0061 28.6138 27.7833 28.8346 27.7833 29.1043C27.7833 29.374 28.0061 29.5947 28.2783 29.5947ZM47 40.0691V41.1463L46.276 41.2878C46.1573 41.3109 46.0579 41.3918 46.0112 41.5023L45.5651 42.5686C45.5185 42.6796 45.5314 42.8062 45.5989 42.906L46.0104 43.514L45.2416 44.2758L44.6283 43.8681C44.5272 43.8011 44.3995 43.7886 44.2871 43.8346L43.2115 44.2769C43.0995 44.3229 43.0185 44.4211 42.9946 44.539L42.8523 45.2564H41.7649L41.6221 44.539C41.599 44.4214 41.5174 44.3229 41.4056 44.2769L40.3295 43.8346C40.2177 43.7886 40.0897 43.8011 39.9886 43.8681L39.3753 44.2758L38.6065 43.514L39.0182 42.906C39.0852 42.8062 39.0984 42.6796 39.0517 42.5686L38.6057 41.5023C38.559 41.3915 38.4598 41.3109 38.3406 41.2878L37.6172 41.1463V40.0691L38.3406 39.9276C38.4596 39.9044 38.559 39.8236 38.6057 39.7128L39.0517 38.6468C39.0984 38.5358 39.0855 38.4092 39.0182 38.3093L38.6065 37.7013L39.3753 36.9396L39.9886 37.3473C40.0897 37.414 40.2177 37.4267 40.3295 37.3808L41.4056 36.9385C41.5174 36.8925 41.5987 36.7943 41.6221 36.6764L41.7649 35.959H42.8523L42.9946 36.6764C43.0185 36.794 43.0995 36.8925 43.2115 36.9385L44.2871 37.3808C44.3995 37.4267 44.5272 37.4145 44.6283 37.3473L45.2416 36.9396L46.0104 37.7013L45.5989 38.3093C45.5316 38.4092 45.5185 38.5358 45.5651 38.6468L46.0112 39.7128C46.0579 39.8239 46.1571 39.9044 46.276 39.9276L47 40.0691ZM44.7024 40.6077C44.7024 39.2978 43.6307 38.2359 42.3087 38.2359C40.9867 38.2359 39.915 39.2978 39.915 40.6077C39.915 41.9176 40.9867 42.9795 42.3087 42.9795C43.6307 42.9795 44.7024 41.9176 44.7024 40.6077ZM37.3925 47.2804C37.387 47.3002 37.3815 47.3204 37.3755 47.34L35.8728 45.851L34.6282 46.1814L34.2948 47.4145L35.7978 48.9038C35.397 49.0222 34.9592 49.0355 34.5255 48.9204C33.2766 48.5889 32.5356 47.3168 32.8701 46.0796C32.8753 46.0606 32.8806 46.0418 32.886 46.023L25.0045 38.2135C24.6046 38.3311 24.1679 38.3442 23.7356 38.2293C22.4867 37.8978 21.7456 36.6258 22.0804 35.3886C22.415 34.1511 23.6988 33.4168 24.9474 33.7483C26.1963 34.0798 26.9373 35.3518 26.6028 36.5891C26.5976 36.6081 26.5924 36.6269 26.5869 36.6457L34.4684 44.4551C34.8683 44.3378 35.305 44.3245 35.7373 44.4394C36.9862 44.7708 37.7273 46.0432 37.3925 47.2804ZM25.6423 35.6433L24.69 34.6998L23.3892 35.0451L23.0407 36.334L23.9929 37.2776L25.2937 36.9322L25.6423 35.6433ZM33.2384 24H32.696L32.5216 25.9083H33.4131L33.2384 24Z" fill="white"/>
<defs>
<filter id="filter0_d_307_3852" x="0" y="0" width="68" height="68" filterUnits="userSpaceOnUse" color-interpolation-filters="sRGB">
<feFlood flood-opacity="0" result="BackgroundImageFix"/>
<feColorMatrix in="SourceAlpha" type="matrix" values="0 0 0 0 0 0 0 0 0 0 0 0 0 0 0 0 0 0 127 0" result="hardAlpha"/>
<feOffset/>
<feGaussianBlur stdDeviation="5"/>
<feComposite in2="hardAlpha" operator="out"/>
<feColorMatrix type="matrix" values="0 0 0 0 0 0 0 0 0 0 0 0 0 0 0 0 0 0 0.25 0"/>
<feBlend mode="normal" in2="BackgroundImageFix" result="effect1_dropShadow_307_3852"/>
<feBlend mode="normal" in="SourceGraphic" in2="effect1_dropShadow_307_3852" result="shape"/>
</filter>
</defs>
</svg>
