<svg width="120" height="120" viewBox="0 0 120 120" fill="none" xmlns="http://www.w3.org/2000/svg">
<g filter="url(#filter0_d_1_20)">
<path d="M110 60C110 87.6142 87.6142 110 60 110C32.3858 110 10 87.6142 10 60C10 32.3858 32.3858 10 60 10C87.6142 10 110 32.3858 110 60Z" fill="#FFD1B0"/>
</g>
<path fill-rule="evenodd" clip-rule="evenodd" d="M74.0738 82.9167H43.8429C40.1085 82.9167 37.0833 79.8889 37.0833 76.1571V45.9262C37.0833 42.1918 40.1085 39.1667 43.8429 39.1667H74.0738C77.8056 39.1667 80.8333 42.1918 80.8333 45.9262V76.1571C80.8333 79.8889 77.8056 82.9167 74.0738 82.9167ZM67.7063 73.4363H50.2078C49.0576 73.4363 48.124 72.5027 48.124 71.3525V64.7915C48.124 63.6413 49.0576 62.7077 50.2078 62.7077C51.3581 62.7077 52.2917 63.6413 52.2917 64.7915V69.2712H67.7063C68.8565 69.2712 69.7901 70.2048 69.7901 71.355C69.7901 72.5027 68.8565 73.4363 67.7063 73.4363ZM66.3239 60.0513C66.721 60.4021 67.2136 60.5749 67.7062 60.5749C68.2813 60.5749 68.8538 60.3376 69.2613 59.8734C70.0247 59.0146 69.9473 57.6967 69.086 56.9333L60.338 49.1731C59.5488 48.4742 58.3625 48.4742 57.5733 49.1731L48.8254 56.9333C47.9666 57.6967 47.8867 59.012 48.65 59.8734C49.4134 60.7322 50.7287 60.8121 51.5901 60.0488L58.9583 53.5136L66.3239 60.0513Z" fill="white"/>
<defs>
<filter id="filter0_d_1_20" x="0" y="0" width="120" height="120" filterUnits="userSpaceOnUse" color-interpolation-filters="sRGB">
<feFlood flood-opacity="0" result="BackgroundImageFix"/>
<feColorMatrix in="SourceAlpha" type="matrix" values="0 0 0 0 0 0 0 0 0 0 0 0 0 0 0 0 0 0 127 0" result="hardAlpha"/>
<feOffset/>
<feGaussianBlur stdDeviation="5"/>
<feComposite in2="hardAlpha" operator="out"/>
<feColorMatrix type="matrix" values="0 0 0 0 0 0 0 0 0 0 0 0 0 0 0 0 0 0 0.25 0"/>
<feBlend mode="normal" in2="BackgroundImageFix" result="effect1_dropShadow_1_20"/>
<feBlend mode="normal" in="SourceGraphic" in2="effect1_dropShadow_1_20" result="shape"/>
</filter>
</defs>
</svg>
