<svg width="120" height="120" viewBox="0 0 120 120" fill="none" xmlns="http://www.w3.org/2000/svg">
<g filter="url(#filter0_d_1_14)">
<path d="M110 60C110 87.6142 87.6142 110 60 110C32.3858 110 10 87.6142 10 60C10 32.3858 32.3858 10 60 10C87.6142 10 110 32.3858 110 60Z" fill="#24A7FF"/>
</g>
<path d="M80.306 43.3333H39.0939C36.8334 43.3333 35 45.1938 35 47.4876V62.0218L56.7249 53.2597C57.0466 53.1297 57.3854 53.4128 57.317 53.7595L53.0666 75.4872C53.004 75.8021 52.6452 75.9494 52.3833 75.7645L45.4368 70.8129C45.266 70.6915 45.0354 70.7089 44.8845 70.8533L42.0945 73.5025C41.7985 73.7856 41.3145 73.54 41.36 73.1298L41.9237 67.9413C41.9351 67.8344 41.9835 67.7362 42.0604 67.6639L49.7727 60.4156C50.1627 60.0516 49.6958 59.4276 49.246 59.7107L38.8889 66.1704C38.7779 66.2397 38.6412 66.2541 38.516 66.2108L35 64.9888V73.1616C35 75.4554 36.8334 77.3159 39.0939 77.3159H75.6911V82.1028L82.5607 76.6254C82.7372 76.507 82.8995 76.3741 83.0561 76.2296L83.0931 76.1978V76.195C83.8959 75.4352 84.3999 74.3576 84.3999 73.1587V47.4876C84.3999 45.1938 82.5693 43.3333 80.306 43.3333ZM75.694 47.4876H80.3088V52.1706H75.694V47.4876Z" fill="white"/>
<defs>
<filter id="filter0_d_1_14" x="0" y="0" width="120" height="120" filterUnits="userSpaceOnUse" color-interpolation-filters="sRGB">
<feFlood flood-opacity="0" result="BackgroundImageFix"/>
<feColorMatrix in="SourceAlpha" type="matrix" values="0 0 0 0 0 0 0 0 0 0 0 0 0 0 0 0 0 0 127 0" result="hardAlpha"/>
<feOffset/>
<feGaussianBlur stdDeviation="5"/>
<feComposite in2="hardAlpha" operator="out"/>
<feColorMatrix type="matrix" values="0 0 0 0 0 0 0 0 0 0 0 0 0 0 0 0 0 0 0.25 0"/>
<feBlend mode="normal" in2="BackgroundImageFix" result="effect1_dropShadow_1_14"/>
<feBlend mode="normal" in="SourceGraphic" in2="effect1_dropShadow_1_14" result="shape"/>
</filter>
</defs>
</svg>
