<svg width="618" height="618" viewBox="0 0 618 618" fill="none" xmlns="http://www.w3.org/2000/svg">
<g filter="url(#filter0_d_1_96)">
<path d="M609 309C609 474.685 474.685 609 309 609C143.315 609 9 474.685 9 309C9 143.315 143.315 9 309 9C474.685 9 609 143.315 609 309Z" fill="#2446AB"/>
</g>
<path fill-rule="evenodd" clip-rule="evenodd" d="M308.999 172.044C255.087 172.044 211.173 215.959 211.173 269.87C211.173 297.146 222.432 321.844 240.521 339.61V436.175C240.521 437.842 240.947 439.482 241.759 440.939C242.571 442.395 243.742 443.62 245.161 444.497C246.579 445.373 248.198 445.873 249.864 445.948C251.53 446.023 253.187 445.671 254.679 444.925L308.999 417.756L363.319 444.925C364.811 445.671 366.468 446.023 368.134 445.948C369.8 445.873 371.419 445.373 372.838 444.497C374.256 443.62 375.427 442.395 376.239 440.939C377.051 439.482 377.477 437.842 377.477 436.175V339.61C395.566 321.844 406.825 297.146 406.825 269.87C406.825 215.959 362.911 172.044 308.999 172.044ZM308.999 209.761C310.845 209.762 312.652 210.283 314.214 211.263C315.776 212.243 317.028 213.643 317.826 215.302L331.736 244L363.396 248.318C365.224 248.564 366.945 249.319 368.361 250.497C369.777 251.675 370.832 253.227 371.402 254.975C371.973 256.724 372.038 258.597 371.588 260.38C371.138 262.164 370.193 263.784 368.86 265.055L345.78 287.085L351.454 318.459C351.782 320.268 351.591 322.133 350.904 323.839C350.216 325.545 349.059 327.023 347.566 328.103C346.073 329.183 344.305 329.821 342.464 329.943C340.624 330.066 338.786 329.668 337.162 328.795L308.999 313.72L280.836 328.795C278.658 329.959 276.119 330.259 273.728 329.636C271.339 329.017 269.271 327.523 267.939 325.45C266.607 323.378 266.109 320.881 266.544 318.458L272.219 287.085L249.138 265.055C247.806 263.784 246.86 262.163 246.411 260.38C245.961 258.597 246.025 256.723 246.596 254.975C247.167 253.227 248.221 251.674 249.637 250.497C251.054 249.319 252.775 248.564 254.602 248.318L286.262 243.999L300.172 215.301C300.971 213.643 302.223 212.243 303.785 211.263C305.346 210.283 307.154 209.762 308.999 209.761ZM260.086 354.513C274.491 362.874 291.19 367.696 308.999 367.696C326.808 367.696 343.508 362.874 357.912 354.513V420.354L313.375 398.076C312.016 397.397 310.518 397.043 308.999 397.043C307.48 397.043 305.982 397.397 304.624 398.076L260.086 420.354V354.513Z" fill="white"/>
<defs>
<filter id="filter0_d_1_96" x="0.976744" y="0.976744" width="616.047" height="616.047" filterUnits="userSpaceOnUse" color-interpolation-filters="sRGB">
<feFlood flood-opacity="0" result="BackgroundImageFix"/>
<feColorMatrix in="SourceAlpha" type="matrix" values="0 0 0 0 0 0 0 0 0 0 0 0 0 0 0 0 0 0 127 0" result="hardAlpha"/>
<feOffset/>
<feGaussianBlur stdDeviation="4.01163"/>
<feComposite in2="hardAlpha" operator="out"/>
<feColorMatrix type="matrix" values="0 0 0 0 0 0 0 0 0 0 0 0 0 0 0 0 0 0 0.25 0"/>
<feBlend mode="normal" in2="BackgroundImageFix" result="effect1_dropShadow_1_96"/>
<feBlend mode="normal" in="SourceGraphic" in2="effect1_dropShadow_1_96" result="shape"/>
</filter>
</defs>
</svg>
