<svg width="320" height="320" viewBox="0 0 320 320" fill="none" xmlns="http://www.w3.org/2000/svg">
<g filter="url(#filter0_d_1_17)">
<path d="M310 160C310 242.843 242.843 310 160 310C77.1573 310 10 242.843 10 160C10 77.1573 77.1573 10 160 10C242.843 10 310 77.1573 310 160Z" fill="#8864A4"/>
</g>
<path d="M82.6425 139.952V139.14C82.6425 137.311 82.4393 135.28 82.0621 132.987C82.2072 132.61 82.3813 132.407 82.6425 132.407C82.2652 130.695 82.0621 129.592 82.0621 129.041V122.772C82.6715 119.145 83.5711 117.317 84.7319 117.317C84.7319 117.23 84.877 117.201 85.1962 117.201H99.8222C100.606 116.968 101.302 116.852 101.912 116.852C103.159 117.404 103.769 118.448 103.769 119.986V120.219C103.392 121.699 102.898 122.424 102.26 122.424C102.231 122.656 101.65 122.888 100.519 123.121C99.3579 123.063 98.7775 122.976 98.7775 122.888L98.3131 123.005C91.8127 123.15 88.2433 123.237 87.6339 123.237V126.603C87.6339 127.328 87.779 129.447 88.0982 132.987H100.403C102.028 133.51 102.84 134.7 102.84 136.586V136.934C102.318 138.211 101.36 139.256 99.9383 140.068C93.2347 139.372 89.4911 139.023 88.6786 139.023V139.14L88.2143 153.533C86.8213 153.998 85.6895 154.23 84.848 154.23H84.0354C83.6001 154.23 83.1358 153.62 82.6425 152.373V146.569C82.6425 145.814 82.4974 144.856 82.1781 143.667C82.4974 141.693 82.6425 140.445 82.6425 139.952ZM124.141 154.259H122.022C112.591 154.259 107.861 149.355 107.861 139.546C107.861 131.739 113.113 127.183 123.618 125.907C132.702 125.907 137.258 132.552 137.258 145.843V150.573C137.258 154.781 136.561 156.871 135.168 156.871H134.646C133.688 156.871 132.963 155.129 132.527 151.618V150.051H132.005C129.074 152.866 126.462 154.259 124.141 154.259ZM122.313 148.049V148.513C127.884 146.307 130.67 143.376 130.67 139.691C130.67 134.961 128.871 132.349 125.243 131.827H122.806C116.915 132.9 113.955 135.193 113.955 138.704C113.955 144.943 116.741 148.049 122.313 148.049ZM145.006 130.056L146.834 129.157H148.053C151.303 129.157 152.928 135.889 152.928 149.384V150.312C152.928 150.776 152.116 151.386 150.491 152.14C148.314 152.14 146.892 151.531 146.225 150.312C145.412 140.155 145.006 133.394 145.006 130.056ZM144.397 122.656V120.451C144.803 119.377 146.022 118.826 148.053 118.826H148.662C150.288 119.406 151.1 120.683 151.1 122.656C151.1 123.179 150.491 123.73 149.272 124.281H146.225C145.644 124.281 145.035 123.73 144.397 122.656ZM159.632 119.29L161.286 118.477H162.911C165.697 120.393 168.251 130.811 170.572 149.703C169.847 151.328 169.121 152.14 168.396 152.14H165.668C163.317 152.14 161.692 144.015 160.735 127.793C160.357 127.793 160.009 124.949 159.632 119.29ZM186.243 146.656V147.265C186.243 148.165 187.23 148.774 189.203 149.035C191.612 149.035 195.558 147.845 201.072 145.495H201.682C202.233 145.495 202.842 146.075 203.452 147.265V147.845C202.349 152.605 197.996 154.984 190.393 154.984H188.594C181.484 153.359 177.914 149.413 177.914 143.115V139.546C179.22 132.407 182.18 128.838 186.823 128.838H188.013C195.936 129.505 199.882 132.088 199.882 136.586C195.82 143.289 191.263 146.656 186.243 146.656ZM188.013 134.787C185.256 135.744 183.863 138.124 183.863 141.925V142.506C190.596 140.794 193.962 138.82 193.962 136.586C190.828 135.396 188.855 134.787 188.013 134.787ZM219.093 154.375H217.439C215.437 154.375 213.406 146.133 211.374 129.621C211.926 128.141 212.477 127.416 213.028 127.416H214.131C215.814 127.416 217.091 130.898 217.991 137.863H218.542C220.777 132.378 224.462 129.621 229.541 129.621C231.021 130.172 231.746 130.695 231.746 131.246V133.452C231.746 134.351 229.715 135.454 225.681 136.76C223.475 139.198 221.821 144.711 220.719 153.272L219.093 154.375ZM110.618 212.006V203.271C110.618 200.224 110.763 195.552 111.082 189.284H107.048C100.751 188.529 97.6167 187.514 97.6167 186.208V184.466C98.11 183.306 99.1547 182.725 100.751 182.725H109.718C111.314 182.725 112.649 182.58 113.781 182.29C115.348 182.58 116.828 182.725 118.25 182.725H126.346C129.625 182.725 131.28 184.031 131.28 186.643C130.235 188.703 129.045 189.719 127.681 189.719C124.634 189.429 122.225 189.284 120.513 189.284H117.35V193.201C117.35 196.22 117.495 198.541 117.814 200.195C117.495 202.023 117.35 204.084 117.35 206.318C117.35 207.044 117.495 209.22 117.814 212.906C116.77 214.937 115.58 215.953 114.216 215.953C112.301 215.953 111.111 214.647 110.618 212.006ZM151.419 217.259H149.301C139.869 217.259 135.139 212.355 135.139 202.546C135.139 194.739 140.392 190.183 150.897 188.907C159.98 188.907 164.536 195.552 164.536 208.843V213.573C164.536 217.781 163.84 219.871 162.447 219.871H161.924C160.967 219.871 160.241 218.129 159.806 214.618V213.051H159.284C156.353 215.866 153.741 217.259 151.419 217.259ZM149.591 211.049V211.513C155.163 209.307 157.949 206.376 157.949 202.691C157.949 197.961 156.15 195.349 152.522 194.827H150.084C144.193 195.9 141.233 198.193 141.233 201.704C141.233 207.943 144.019 211.049 149.591 211.049ZM171.878 182.29L173.532 181.477H175.158C177.943 183.393 180.497 193.811 182.819 212.703C182.093 214.328 181.368 215.14 180.642 215.14H177.914C175.564 215.14 173.939 207.015 172.981 190.793C172.604 190.793 172.256 187.949 171.878 182.29ZM196.11 187.572V196.161H196.69L210.591 189.4C212.129 189.835 212.912 190.299 212.912 190.735V192.099C212.912 192.737 210.417 194.681 205.396 197.961V198.425C210.446 204.867 213.348 209.54 214.073 212.442V212.877C214.073 213.312 213.493 213.776 212.332 214.241H210.591C209.43 214.241 206.354 209.569 201.333 200.224H200.173C197.474 201.472 196.11 202.401 196.11 202.952C196.11 203.881 196.313 206.725 196.69 211.513C196.429 213.922 194.891 215.14 192.076 215.14C190.538 214.125 189.754 211.426 189.754 207.015C190.538 192.795 190.915 183.915 190.915 180.346L192.656 179.446H193.237C194.775 179.446 195.733 182.145 196.11 187.572Z" fill="white"/>
<defs>
<filter id="filter0_d_1_17" x="0" y="0" width="320" height="320" filterUnits="userSpaceOnUse" color-interpolation-filters="sRGB">
<feFlood flood-opacity="0" result="BackgroundImageFix"/>
<feColorMatrix in="SourceAlpha" type="matrix" values="0 0 0 0 0 0 0 0 0 0 0 0 0 0 0 0 0 0 127 0" result="hardAlpha"/>
<feOffset/>
<feGaussianBlur stdDeviation="5"/>
<feComposite in2="hardAlpha" operator="out"/>
<feColorMatrix type="matrix" values="0 0 0 0 0 0 0 0 0 0 0 0 0 0 0 0 0 0 0.25 0"/>
<feBlend mode="normal" in2="BackgroundImageFix" result="effect1_dropShadow_1_17"/>
<feBlend mode="normal" in="SourceGraphic" in2="effect1_dropShadow_1_17" result="shape"/>
</filter>
</defs>
</svg>
